<svg xmlns="http://www.w3.org/2000/svg" xmlns:xlink="http://www.w3.org/1999/xlink" width="500" zoomAndPan="magnify" viewBox="0 0 375 187.499995" height="250" preserveAspectRatio="xMidYMid meet" version="1.0"><defs><g/><clipPath id="7b735a564f"><path d="M 0.5 38.902344 L 76 38.902344 L 76 118.1875 L 0.5 118.1875 Z M 0.5 38.902344 " clip-rule="nonzero"/></clipPath><clipPath id="03f60a72bf"><path d="M 43.871094 75.824219 L 10.171875 75.824219 C 8.863281 75.824219 7.917969 74.578125 8.269531 73.320312 L 17.523438 40.347656 C 17.761719 39.496094 18.539062 38.90625 19.421875 38.90625 L 53.121094 38.90625 C 54.429688 38.90625 55.375 40.152344 55.023438 41.414062 L 45.769531 74.382812 C 45.53125 75.234375 44.753906 75.824219 43.871094 75.824219 Z M 21.980469 100.714844 L 26.746094 83.734375 C 27.097656 82.476562 26.152344 81.230469 24.84375 81.230469 L 7.523438 81.230469 C 6.636719 81.230469 5.859375 81.820312 5.621094 82.671875 L 0.859375 99.648438 C 0.503906 100.90625 1.453125 102.152344 2.757812 102.152344 L 20.082031 102.152344 C 20.964844 102.152344 21.742188 101.566406 21.980469 100.714844 Z M 30.746094 82.671875 L 21.496094 115.640625 C 21.144531 116.902344 22.089844 118.148438 23.394531 118.148438 L 57.097656 118.148438 C 57.980469 118.148438 58.757812 117.558594 58.996094 116.707031 L 68.246094 83.734375 C 68.601562 82.476562 67.65625 81.230469 66.347656 81.230469 L 32.648438 81.230469 C 31.761719 81.230469 30.988281 81.820312 30.746094 82.671875 Z M 54.535156 56.339844 L 49.773438 73.320312 C 49.417969 74.578125 50.367188 75.824219 51.671875 75.824219 L 68.996094 75.824219 C 69.878906 75.824219 70.65625 75.234375 70.894531 74.382812 L 75.660156 57.40625 C 76.011719 56.148438 75.066406 54.902344 73.757812 54.902344 L 56.4375 54.902344 C 55.550781 54.902344 54.773438 55.488281 54.535156 56.339844 Z M 54.535156 56.339844 " clip-rule="nonzero"/></clipPath><linearGradient x1="114.296435" gradientTransform="matrix(0.158484, 0, 0, 0.158484, 0.783947, 38.906366)" y1="-47.633988" x2="358.621817" gradientUnits="userSpaceOnUse" y2="547.633938" id="544176dcc9"><stop stop-opacity="1" stop-color="rgb(10.998535%, 85.499573%, 100%)" offset="0"/><stop stop-opacity="1" stop-color="rgb(10.998535%, 85.499573%, 100%)" offset="0.0625"/><stop stop-opacity="1" stop-color="rgb(10.986328%, 85.418701%, 100%)" offset="0.09375"/><stop stop-opacity="1" stop-color="rgb(10.945129%, 85.124207%, 100%)" offset="0.0976562"/><stop stop-opacity="1" stop-color="rgb(10.914612%, 84.910583%, 100%)" offset="0.101563"/><stop stop-opacity="1" stop-color="rgb(10.882568%, 84.695435%, 100%)" offset="0.105469"/><stop stop-opacity="1" stop-color="rgb(10.852051%, 84.480286%, 100%)" offset="0.109375"/><stop stop-opacity="1" stop-color="rgb(10.820007%, 84.265137%, 100%)" offset="0.113281"/><stop stop-opacity="1" stop-color="rgb(10.78949%, 84.049988%, 100%)" offset="0.117188"/><stop stop-opacity="1" stop-color="rgb(10.757446%, 83.834839%, 100%)" offset="0.121094"/><stop stop-opacity="1" stop-color="rgb(10.726929%, 83.61969%, 100%)" offset="0.125"/><stop stop-opacity="1" stop-color="rgb(10.696411%, 83.404541%, 100%)" offset="0.128906"/><stop stop-opacity="1" stop-color="rgb(10.665894%, 83.189392%, 100%)" offset="0.132812"/><stop stop-opacity="1" stop-color="rgb(10.63385%, 82.974243%, 100%)" offset="0.136719"/><stop stop-opacity="1" stop-color="rgb(10.603333%, 82.759094%, 100%)" offset="0.140625"/><stop stop-opacity="1" stop-color="rgb(10.571289%, 82.543945%, 100%)" offset="0.144531"/><stop stop-opacity="1" stop-color="rgb(10.540771%, 82.330322%, 100%)" offset="0.148438"/><stop stop-opacity="1" stop-color="rgb(10.508728%, 82.115173%, 100%)" offset="0.152344"/><stop stop-opacity="1" stop-color="rgb(10.47821%, 81.900024%, 100%)" offset="0.15625"/><stop stop-opacity="1" stop-color="rgb(10.447693%, 81.684875%, 100%)" offset="0.160156"/><stop stop-opacity="1" stop-color="rgb(10.417175%, 81.469727%, 100%)" offset="0.164062"/><stop stop-opacity="1" stop-color="rgb(10.385132%, 81.254578%, 100%)" offset="0.167969"/><stop stop-opacity="1" stop-color="rgb(10.354614%, 81.039429%, 100%)" offset="0.171875"/><stop stop-opacity="1" stop-color="rgb(10.322571%, 80.82428%, 100%)" offset="0.175781"/><stop stop-opacity="1" stop-color="rgb(10.292053%, 80.609131%, 100%)" offset="0.179688"/><stop stop-opacity="1" stop-color="rgb(10.26001%, 80.393982%, 100%)" offset="0.183594"/><stop stop-opacity="1" stop-color="rgb(10.229492%, 80.178833%, 100%)" offset="0.1875"/><stop stop-opacity="1" stop-color="rgb(10.198975%, 79.963684%, 100%)" offset="0.191406"/><stop stop-opacity="1" stop-color="rgb(10.168457%, 79.750061%, 100%)" offset="0.195313"/><stop stop-opacity="1" stop-color="rgb(10.136414%, 79.534912%, 100%)" offset="0.199219"/><stop stop-opacity="1" stop-color="rgb(10.105896%, 79.319763%, 100%)" offset="0.203125"/><stop stop-opacity="1" stop-color="rgb(10.073853%, 79.104614%, 100%)" offset="0.207031"/><stop stop-opacity="1" stop-color="rgb(10.043335%, 78.889465%, 100%)" offset="0.210938"/><stop stop-opacity="1" stop-color="rgb(10.011292%, 78.674316%, 100%)" offset="0.214844"/><stop stop-opacity="1" stop-color="rgb(9.980774%, 78.459167%, 100%)" offset="0.21875"/><stop stop-opacity="1" stop-color="rgb(9.950256%, 78.244019%, 100%)" offset="0.222656"/><stop stop-opacity="1" stop-color="rgb(9.919739%, 78.02887%, 100%)" offset="0.226562"/><stop stop-opacity="1" stop-color="rgb(9.887695%, 77.813721%, 100%)" offset="0.230469"/><stop stop-opacity="1" stop-color="rgb(9.857178%, 77.598572%, 100%)" offset="0.234375"/><stop stop-opacity="1" stop-color="rgb(9.825134%, 77.383423%, 100%)" offset="0.238281"/><stop stop-opacity="1" stop-color="rgb(9.794617%, 77.168274%, 100%)" offset="0.242188"/><stop stop-opacity="1" stop-color="rgb(9.762573%, 76.953125%, 100%)" offset="0.246094"/><stop stop-opacity="1" stop-color="rgb(9.732056%, 76.739502%, 100%)" offset="0.25"/><stop stop-opacity="1" stop-color="rgb(9.700012%, 76.524353%, 100%)" offset="0.253906"/><stop stop-opacity="1" stop-color="rgb(9.669495%, 76.309204%, 100%)" offset="0.257813"/><stop stop-opacity="1" stop-color="rgb(9.638977%, 76.094055%, 100%)" offset="0.261719"/><stop stop-opacity="1" stop-color="rgb(9.608459%, 75.878906%, 100%)" offset="0.265625"/><stop stop-opacity="1" stop-color="rgb(9.576416%, 75.663757%, 100%)" offset="0.269531"/><stop stop-opacity="1" stop-color="rgb(9.545898%, 75.448608%, 100%)" offset="0.273438"/><stop stop-opacity="1" stop-color="rgb(9.513855%, 75.233459%, 100%)" offset="0.277344"/><stop stop-opacity="1" stop-color="rgb(9.483337%, 75.018311%, 100%)" offset="0.28125"/><stop stop-opacity="1" stop-color="rgb(9.451294%, 74.803162%, 100%)" offset="0.285156"/><stop stop-opacity="1" stop-color="rgb(9.420776%, 74.588013%, 100%)" offset="0.289062"/><stop stop-opacity="1" stop-color="rgb(9.390259%, 74.372864%, 100%)" offset="0.292969"/><stop stop-opacity="1" stop-color="rgb(9.359741%, 74.159241%, 100%)" offset="0.296875"/><stop stop-opacity="1" stop-color="rgb(9.327698%, 73.944092%, 100%)" offset="0.300781"/><stop stop-opacity="1" stop-color="rgb(9.29718%, 73.728943%, 100%)" offset="0.304688"/><stop stop-opacity="1" stop-color="rgb(9.265137%, 73.513794%, 100%)" offset="0.308594"/><stop stop-opacity="1" stop-color="rgb(9.234619%, 73.298645%, 100%)" offset="0.3125"/><stop stop-opacity="1" stop-color="rgb(9.202576%, 73.083496%, 100%)" offset="0.316406"/><stop stop-opacity="1" stop-color="rgb(9.172058%, 72.868347%, 100%)" offset="0.320313"/><stop stop-opacity="1" stop-color="rgb(9.141541%, 72.653198%, 100%)" offset="0.324219"/><stop stop-opacity="1" stop-color="rgb(9.111023%, 72.438049%, 100%)" offset="0.328125"/><stop stop-opacity="1" stop-color="rgb(9.078979%, 72.2229%, 100%)" offset="0.332031"/><stop stop-opacity="1" stop-color="rgb(9.048462%, 72.007751%, 100%)" offset="0.335938"/><stop stop-opacity="1" stop-color="rgb(9.016418%, 71.792603%, 100%)" offset="0.339844"/><stop stop-opacity="1" stop-color="rgb(8.985901%, 71.578979%, 100%)" offset="0.34375"/><stop stop-opacity="1" stop-color="rgb(8.953857%, 71.363831%, 100%)" offset="0.347656"/><stop stop-opacity="1" stop-color="rgb(8.92334%, 71.148682%, 100%)" offset="0.351562"/><stop stop-opacity="1" stop-color="rgb(8.892822%, 70.933533%, 100%)" offset="0.355469"/><stop stop-opacity="1" stop-color="rgb(8.862305%, 70.718384%, 100%)" offset="0.359375"/><stop stop-opacity="1" stop-color="rgb(8.830261%, 70.503235%, 100%)" offset="0.363281"/><stop stop-opacity="1" stop-color="rgb(8.799744%, 70.288086%, 100%)" offset="0.367188"/><stop stop-opacity="1" stop-color="rgb(8.7677%, 70.072937%, 100%)" offset="0.371094"/><stop stop-opacity="1" stop-color="rgb(8.737183%, 69.857788%, 100%)" offset="0.375"/><stop stop-opacity="1" stop-color="rgb(8.705139%, 69.642639%, 100%)" offset="0.378906"/><stop stop-opacity="1" stop-color="rgb(8.674622%, 69.42749%, 100%)" offset="0.382813"/><stop stop-opacity="1" stop-color="rgb(8.644104%, 69.212341%, 100%)" offset="0.386719"/><stop stop-opacity="1" stop-color="rgb(8.613586%, 68.998718%, 100%)" offset="0.390625"/><stop stop-opacity="1" stop-color="rgb(8.581543%, 68.783569%, 100%)" offset="0.394531"/><stop stop-opacity="1" stop-color="rgb(8.551025%, 68.56842%, 100%)" offset="0.398438"/><stop stop-opacity="1" stop-color="rgb(8.518982%, 68.353271%, 100%)" offset="0.402344"/><stop stop-opacity="1" stop-color="rgb(8.488464%, 68.138123%, 100%)" offset="0.40625"/><stop stop-opacity="1" stop-color="rgb(8.456421%, 67.922974%, 100%)" offset="0.410156"/><stop stop-opacity="1" stop-color="rgb(8.425903%, 67.707825%, 100%)" offset="0.414062"/><stop stop-opacity="1" stop-color="rgb(8.395386%, 67.492676%, 100%)" offset="0.417969"/><stop stop-opacity="1" stop-color="rgb(8.364868%, 67.277527%, 100%)" offset="0.421875"/><stop stop-opacity="1" stop-color="rgb(8.332825%, 67.062378%, 100%)" offset="0.425781"/><stop stop-opacity="1" stop-color="rgb(8.302307%, 66.847229%, 100%)" offset="0.429688"/><stop stop-opacity="1" stop-color="rgb(8.270264%, 66.63208%, 100%)" offset="0.433594"/><stop stop-opacity="1" stop-color="rgb(8.239746%, 66.418457%, 100%)" offset="0.4375"/><stop stop-opacity="1" stop-color="rgb(8.207703%, 66.203308%, 100%)" offset="0.441406"/><stop stop-opacity="1" stop-color="rgb(8.177185%, 65.988159%, 100%)" offset="0.445313"/><stop stop-opacity="1" stop-color="rgb(8.146667%, 65.77301%, 100%)" offset="0.449219"/><stop stop-opacity="1" stop-color="rgb(8.11615%, 65.557861%, 100%)" offset="0.453125"/><stop stop-opacity="1" stop-color="rgb(8.084106%, 65.342712%, 100%)" offset="0.457031"/><stop stop-opacity="1" stop-color="rgb(8.053589%, 65.127563%, 100%)" offset="0.460938"/><stop stop-opacity="1" stop-color="rgb(8.021545%, 64.912415%, 100%)" offset="0.464844"/><stop stop-opacity="1" stop-color="rgb(7.991028%, 64.697266%, 100%)" offset="0.46875"/><stop stop-opacity="1" stop-color="rgb(7.958984%, 64.482117%, 100%)" offset="0.472656"/><stop stop-opacity="1" stop-color="rgb(7.928467%, 64.266968%, 100%)" offset="0.476562"/><stop stop-opacity="1" stop-color="rgb(7.897949%, 64.051819%, 100%)" offset="0.480469"/><stop stop-opacity="1" stop-color="rgb(7.867432%, 63.838196%, 100%)" offset="0.484375"/><stop stop-opacity="1" stop-color="rgb(7.835388%, 63.623047%, 100%)" offset="0.488281"/><stop stop-opacity="1" stop-color="rgb(7.804871%, 63.407898%, 100%)" offset="0.492187"/><stop stop-opacity="1" stop-color="rgb(7.772827%, 63.192749%, 100%)" offset="0.496094"/><stop stop-opacity="1" stop-color="rgb(7.74231%, 62.9776%, 100%)" offset="0.5"/><stop stop-opacity="1" stop-color="rgb(7.710266%, 62.762451%, 100%)" offset="0.503906"/><stop stop-opacity="1" stop-color="rgb(7.679749%, 62.547302%, 100%)" offset="0.507812"/><stop stop-opacity="1" stop-color="rgb(7.649231%, 62.332153%, 100%)" offset="0.511719"/><stop stop-opacity="1" stop-color="rgb(7.618713%, 62.117004%, 100%)" offset="0.515625"/><stop stop-opacity="1" stop-color="rgb(7.58667%, 61.901855%, 100%)" offset="0.519531"/><stop stop-opacity="1" stop-color="rgb(7.556152%, 61.686707%, 100%)" offset="0.523438"/><stop stop-opacity="1" stop-color="rgb(7.524109%, 61.471558%, 100%)" offset="0.527344"/><stop stop-opacity="1" stop-color="rgb(7.493591%, 61.256409%, 100%)" offset="0.53125"/><stop stop-opacity="1" stop-color="rgb(7.461548%, 61.04126%, 100%)" offset="0.535156"/><stop stop-opacity="1" stop-color="rgb(7.43103%, 60.827637%, 100%)" offset="0.539062"/><stop stop-opacity="1" stop-color="rgb(7.400513%, 60.612488%, 100%)" offset="0.542969"/><stop stop-opacity="1" stop-color="rgb(7.369995%, 60.397339%, 100%)" offset="0.546875"/><stop stop-opacity="1" stop-color="rgb(7.337952%, 60.18219%, 100%)" offset="0.550781"/><stop stop-opacity="1" stop-color="rgb(7.307434%, 59.967041%, 100%)" offset="0.554688"/><stop stop-opacity="1" stop-color="rgb(7.275391%, 59.751892%, 100%)" offset="0.558594"/><stop stop-opacity="1" stop-color="rgb(7.244873%, 59.536743%, 100%)" offset="0.5625"/><stop stop-opacity="1" stop-color="rgb(7.21283%, 59.321594%, 100%)" offset="0.566406"/><stop stop-opacity="1" stop-color="rgb(7.182312%, 59.106445%, 100%)" offset="0.570312"/><stop stop-opacity="1" stop-color="rgb(7.150269%, 58.891296%, 100%)" offset="0.574219"/><stop stop-opacity="1" stop-color="rgb(7.119751%, 58.676147%, 100%)" offset="0.578125"/><stop stop-opacity="1" stop-color="rgb(7.089233%, 58.460999%, 100%)" offset="0.582031"/><stop stop-opacity="1" stop-color="rgb(7.058716%, 58.247375%, 100%)" offset="0.585938"/><stop stop-opacity="1" stop-color="rgb(7.026672%, 58.032227%, 100%)" offset="0.589844"/><stop stop-opacity="1" stop-color="rgb(6.996155%, 57.817078%, 100%)" offset="0.59375"/><stop stop-opacity="1" stop-color="rgb(6.964111%, 57.601929%, 100%)" offset="0.597656"/><stop stop-opacity="1" stop-color="rgb(6.933594%, 57.38678%, 100%)" offset="0.601562"/><stop stop-opacity="1" stop-color="rgb(6.90155%, 57.171631%, 100%)" offset="0.605469"/><stop stop-opacity="1" stop-color="rgb(6.871033%, 56.956482%, 100%)" offset="0.609375"/><stop stop-opacity="1" stop-color="rgb(6.840515%, 56.741333%, 100%)" offset="0.613281"/><stop stop-opacity="1" stop-color="rgb(6.809998%, 56.526184%, 100%)" offset="0.617188"/><stop stop-opacity="1" stop-color="rgb(6.777954%, 56.311035%, 100%)" offset="0.621094"/><stop stop-opacity="1" stop-color="rgb(6.747437%, 56.095886%, 100%)" offset="0.625"/><stop stop-opacity="1" stop-color="rgb(6.715393%, 55.880737%, 100%)" offset="0.628906"/><stop stop-opacity="1" stop-color="rgb(6.684875%, 55.667114%, 100%)" offset="0.632812"/><stop stop-opacity="1" stop-color="rgb(6.652832%, 55.451965%, 100%)" offset="0.636719"/><stop stop-opacity="1" stop-color="rgb(6.622314%, 55.236816%, 100%)" offset="0.640625"/><stop stop-opacity="1" stop-color="rgb(6.591797%, 55.021667%, 100%)" offset="0.644531"/><stop stop-opacity="1" stop-color="rgb(6.561279%, 54.806519%, 100%)" offset="0.648438"/><stop stop-opacity="1" stop-color="rgb(6.529236%, 54.59137%, 100%)" offset="0.652344"/><stop stop-opacity="1" stop-color="rgb(6.498718%, 54.376221%, 100%)" offset="0.65625"/><stop stop-opacity="1" stop-color="rgb(6.466675%, 54.161072%, 100%)" offset="0.660156"/><stop stop-opacity="1" stop-color="rgb(6.436157%, 53.945923%, 100%)" offset="0.664062"/><stop stop-opacity="1" stop-color="rgb(6.404114%, 53.730774%, 100%)" offset="0.667969"/><stop stop-opacity="1" stop-color="rgb(6.373596%, 53.515625%, 100%)" offset="0.671875"/><stop stop-opacity="1" stop-color="rgb(6.343079%, 53.300476%, 100%)" offset="0.675781"/><stop stop-opacity="1" stop-color="rgb(6.312561%, 53.086853%, 100%)" offset="0.679688"/><stop stop-opacity="1" stop-color="rgb(6.280518%, 52.871704%, 100%)" offset="0.683594"/><stop stop-opacity="1" stop-color="rgb(6.25%, 52.656555%, 100%)" offset="0.6875"/><stop stop-opacity="1" stop-color="rgb(6.217957%, 52.441406%, 100%)" offset="0.691406"/><stop stop-opacity="1" stop-color="rgb(6.187439%, 52.226257%, 100%)" offset="0.695312"/><stop stop-opacity="1" stop-color="rgb(6.155396%, 52.011108%, 100%)" offset="0.699219"/><stop stop-opacity="1" stop-color="rgb(6.124878%, 51.795959%, 100%)" offset="0.703125"/><stop stop-opacity="1" stop-color="rgb(6.09436%, 51.580811%, 100%)" offset="0.707031"/><stop stop-opacity="1" stop-color="rgb(6.063843%, 51.365662%, 100%)" offset="0.710938"/><stop stop-opacity="1" stop-color="rgb(6.031799%, 51.150513%, 100%)" offset="0.714844"/><stop stop-opacity="1" stop-color="rgb(6.001282%, 50.935364%, 100%)" offset="0.71875"/><stop stop-opacity="1" stop-color="rgb(5.969238%, 50.720215%, 100%)" offset="0.722656"/><stop stop-opacity="1" stop-color="rgb(5.938721%, 50.506592%, 100%)" offset="0.726562"/><stop stop-opacity="1" stop-color="rgb(5.906677%, 50.291443%, 100%)" offset="0.730469"/><stop stop-opacity="1" stop-color="rgb(5.87616%, 50.076294%, 100%)" offset="0.734375"/><stop stop-opacity="1" stop-color="rgb(5.845642%, 49.861145%, 100%)" offset="0.738281"/><stop stop-opacity="1" stop-color="rgb(5.815125%, 49.645996%, 100%)" offset="0.742188"/><stop stop-opacity="1" stop-color="rgb(5.783081%, 49.430847%, 100%)" offset="0.746094"/><stop stop-opacity="1" stop-color="rgb(5.752563%, 49.215698%, 100%)" offset="0.75"/><stop stop-opacity="1" stop-color="rgb(5.72052%, 49.000549%, 100%)" offset="0.753906"/><stop stop-opacity="1" stop-color="rgb(5.690002%, 48.7854%, 100%)" offset="0.757812"/><stop stop-opacity="1" stop-color="rgb(5.657959%, 48.570251%, 100%)" offset="0.761719"/><stop stop-opacity="1" stop-color="rgb(5.627441%, 48.355103%, 100%)" offset="0.765625"/><stop stop-opacity="1" stop-color="rgb(5.596924%, 48.139954%, 100%)" offset="0.769531"/><stop stop-opacity="1" stop-color="rgb(5.566406%, 47.926331%, 100%)" offset="0.773438"/><stop stop-opacity="1" stop-color="rgb(5.534363%, 47.711182%, 100%)" offset="0.777344"/><stop stop-opacity="1" stop-color="rgb(5.503845%, 47.496033%, 100%)" offset="0.78125"/><stop stop-opacity="1" stop-color="rgb(5.471802%, 47.280884%, 100%)" offset="0.785156"/><stop stop-opacity="1" stop-color="rgb(5.441284%, 47.065735%, 100%)" offset="0.789063"/><stop stop-opacity="1" stop-color="rgb(5.409241%, 46.850586%, 100%)" offset="0.792969"/><stop stop-opacity="1" stop-color="rgb(5.378723%, 46.635437%, 100%)" offset="0.796875"/><stop stop-opacity="1" stop-color="rgb(5.348206%, 46.420288%, 100%)" offset="0.800781"/><stop stop-opacity="1" stop-color="rgb(5.317688%, 46.205139%, 100%)" offset="0.804688"/><stop stop-opacity="1" stop-color="rgb(5.285645%, 45.98999%, 100%)" offset="0.808594"/><stop stop-opacity="1" stop-color="rgb(5.255127%, 45.774841%, 100%)" offset="0.8125"/><stop stop-opacity="1" stop-color="rgb(5.223083%, 45.559692%, 100%)" offset="0.816406"/><stop stop-opacity="1" stop-color="rgb(5.192566%, 45.346069%, 100%)" offset="0.820312"/><stop stop-opacity="1" stop-color="rgb(5.160522%, 45.13092%, 100%)" offset="0.824219"/><stop stop-opacity="1" stop-color="rgb(5.130005%, 44.915771%, 100%)" offset="0.828125"/><stop stop-opacity="1" stop-color="rgb(5.114746%, 44.807434%, 100%)" offset="0.84375"/><stop stop-opacity="1" stop-color="rgb(5.099487%, 44.699097%, 100%)" offset="0.875"/><stop stop-opacity="1" stop-color="rgb(5.099487%, 44.699097%, 100%)" offset="1"/></linearGradient></defs><g fill="#0d72ff" fill-opacity="1"><g transform="translate(73.532486, 101.828092)"><g><path d="M 23.765625 0.984375 C 20.003906 0.984375 16.742188 0.367188 13.984375 -0.859375 C 11.222656 -2.085938 8.945312 -3.765625 7.15625 -5.890625 C 5.375 -8.023438 4.039062 -10.472656 3.15625 -13.234375 C 2.28125 -15.992188 1.84375 -18.910156 1.84375 -21.984375 C 1.84375 -25.046875 2.28125 -27.945312 3.15625 -30.6875 C 4.039062 -33.4375 5.375 -35.875 7.15625 -38 C 8.945312 -40.125 11.222656 -41.789062 13.984375 -43 C 16.742188 -44.207031 20.003906 -44.8125 23.765625 -44.8125 C 27.640625 -44.8125 30.945312 -44.148438 33.6875 -42.828125 C 36.425781 -41.503906 38.597656 -39.660156 40.203125 -37.296875 C 41.816406 -34.941406 42.816406 -32.191406 43.203125 -29.046875 L 31.9375 -29.046875 C 31.625 -31.316406 30.691406 -32.976562 29.140625 -34.03125 C 27.585938 -35.082031 25.71875 -35.609375 23.53125 -35.609375 C 20.039062 -35.609375 17.363281 -34.367188 15.5 -31.890625 C 13.644531 -29.421875 12.71875 -26.117188 12.71875 -21.984375 C 12.71875 -17.796875 13.644531 -14.457031 15.5 -11.96875 C 17.363281 -9.476562 20.039062 -8.234375 23.53125 -8.234375 C 25.71875 -8.234375 27.578125 -8.769531 29.109375 -9.84375 C 30.640625 -10.914062 31.582031 -12.601562 31.9375 -14.90625 L 43.203125 -14.90625 C 42.816406 -11.757812 41.816406 -8.984375 40.203125 -6.578125 C 38.597656 -4.179688 36.425781 -2.320312 33.6875 -1 C 30.945312 0.320312 27.640625 0.984375 23.765625 0.984375 Z M 23.765625 0.984375 "/></g></g></g><g fill="#ffffff" fill-opacity="1"><g transform="translate(113.179848, 101.828092)"><g><path d="M 18.984375 0.6875 C 15.609375 0.6875 12.625 -0.0195312 10.03125 -1.4375 C 7.445312 -2.851562 5.4375 -4.851562 4 -7.4375 C 2.5625 -10.03125 1.84375 -13.054688 1.84375 -16.515625 C 1.84375 -19.847656 2.5625 -22.769531 4 -25.28125 C 5.4375 -27.789062 7.4375 -29.753906 10 -31.171875 C 12.570312 -32.597656 15.566406 -33.3125 18.984375 -33.3125 C 22.398438 -33.3125 25.390625 -32.597656 27.953125 -31.171875 C 30.523438 -29.753906 32.53125 -27.789062 33.96875 -25.28125 C 35.40625 -22.769531 36.125 -19.847656 36.125 -16.515625 C 36.125 -13.054688 35.414062 -10.039062 34 -7.46875 C 32.582031 -4.90625 30.585938 -2.90625 28.015625 -1.46875 C 25.441406 -0.03125 22.429688 0.6875 18.984375 0.6875 Z M 18.984375 -7.59375 C 21.171875 -7.59375 22.894531 -8.40625 24.15625 -10.03125 C 25.425781 -11.664062 26.0625 -13.828125 26.0625 -16.515625 C 26.0625 -19.046875 25.425781 -21.101562 24.15625 -22.6875 C 22.894531 -24.28125 21.171875 -25.078125 18.984375 -25.078125 C 16.835938 -25.078125 15.101562 -24.289062 13.78125 -22.71875 C 12.457031 -21.144531 11.796875 -19.078125 11.796875 -16.515625 C 11.796875 -13.785156 12.457031 -11.613281 13.78125 -10 C 15.101562 -8.394531 16.835938 -7.59375 18.984375 -7.59375 Z M 18.984375 -7.59375 "/></g></g></g><g fill="#ffffff" fill-opacity="1"><g transform="translate(145.968116, 101.828092)"><g><path d="M 12.828125 0 L 3.171875 0 L 3.171875 -32.625 L 12.828125 -32.625 L 12.828125 -29.109375 C 13.941406 -30.753906 15.175781 -31.863281 16.53125 -32.4375 C 17.894531 -33.019531 19.441406 -33.3125 21.171875 -33.3125 L 22.609375 -33.3125 L 22.609375 -24.109375 L 20.765625 -24.109375 C 19.421875 -24.109375 18.304688 -23.953125 17.421875 -23.640625 C 16.546875 -23.335938 15.820312 -22.914062 15.25 -22.375 C 14.40625 -21.570312 13.789062 -20.488281 13.40625 -19.125 C 13.019531 -17.769531 12.828125 -15.976562 12.828125 -13.75 Z M 12.828125 0 "/></g></g></g><g fill="#ffffff" fill-opacity="1"><g transform="translate(164.37498, 101.828092)"><g><path d="M 18.875 0.6875 C 15.414062 0.6875 12.410156 -0.0390625 9.859375 -1.5 C 7.316406 -2.957031 5.34375 -4.941406 3.9375 -7.453125 C 2.539062 -9.960938 1.84375 -12.828125 1.84375 -16.046875 C 1.84375 -18.117188 2.15625 -20.171875 2.78125 -22.203125 C 3.414062 -24.234375 4.414062 -26.09375 5.78125 -27.78125 C 7.144531 -29.46875 8.878906 -30.8125 10.984375 -31.8125 C 13.097656 -32.8125 15.628906 -33.3125 18.578125 -33.3125 C 20.722656 -33.3125 22.800781 -32.992188 24.8125 -32.359375 C 26.832031 -31.722656 28.640625 -30.710938 30.234375 -29.328125 C 31.828125 -27.953125 33.09375 -26.160156 34.03125 -23.953125 C 34.96875 -21.753906 35.4375 -19.082031 35.4375 -15.9375 L 35.4375 -14.265625 L 11.96875 -14.265625 C 12.238281 -12.503906 12.796875 -11.101562 13.640625 -10.0625 C 14.328125 -9.21875 15.160156 -8.59375 16.140625 -8.1875 C 17.117188 -7.789062 18.203125 -7.59375 19.390625 -7.59375 C 20.847656 -7.59375 22.082031 -7.957031 23.09375 -8.6875 C 24.113281 -9.414062 24.816406 -10.28125 25.203125 -11.28125 L 34.921875 -11.28125 C 34.304688 -9.125 33.328125 -7.132812 31.984375 -5.3125 C 30.640625 -3.5 28.882812 -2.046875 26.71875 -0.953125 C 24.550781 0.140625 21.9375 0.6875 18.875 0.6875 Z M 12.25 -21.109375 L 25.65625 -21.109375 C 25.582031 -21.492188 25.4375 -21.953125 25.21875 -22.484375 C 25.007812 -23.023438 24.640625 -23.546875 24.109375 -24.046875 C 23.410156 -24.734375 22.617188 -25.222656 21.734375 -25.515625 C 20.859375 -25.804688 19.921875 -25.953125 18.921875 -25.953125 C 17.960938 -25.953125 17.03125 -25.804688 16.125 -25.515625 C 15.226562 -25.222656 14.4375 -24.734375 13.75 -24.046875 C 13.207031 -23.515625 12.84375 -22.988281 12.65625 -22.46875 C 12.46875 -21.945312 12.332031 -21.492188 12.25 -21.109375 Z M 12.25 -21.109375 "/></g></g></g><g fill="#0d72ff" fill-opacity="1"><g transform="translate(196.481256, 101.828092)"><g><path d="M 24.734375 0 L 12.3125 0 L 0.859375 -43.890625 L 9.546875 -43.890625 L 18.578125 -7.484375 L 26.75 -43.890625 L 37.28125 -43.890625 L 45.453125 -7.421875 L 54.484375 -43.890625 L 63.171875 -43.890625 L 51.65625 0 L 39.296875 0 L 31.984375 -34 Z M 24.734375 0 "/></g></g></g><g fill="#ffffff" fill-opacity="1"><g transform="translate(255.279702, 101.828092)"><g><path d="M 18.984375 0.6875 C 15.609375 0.6875 12.625 -0.0195312 10.03125 -1.4375 C 7.445312 -2.851562 5.4375 -4.851562 4 -7.4375 C 2.5625 -10.03125 1.84375 -13.054688 1.84375 -16.515625 C 1.84375 -19.847656 2.5625 -22.769531 4 -25.28125 C 5.4375 -27.789062 7.4375 -29.753906 10 -31.171875 C 12.570312 -32.597656 15.566406 -33.3125 18.984375 -33.3125 C 22.398438 -33.3125 25.390625 -32.597656 27.953125 -31.171875 C 30.523438 -29.753906 32.53125 -27.789062 33.96875 -25.28125 C 35.40625 -22.769531 36.125 -19.847656 36.125 -16.515625 C 36.125 -13.054688 35.414062 -10.039062 34 -7.46875 C 32.582031 -4.90625 30.585938 -2.90625 28.015625 -1.46875 C 25.441406 -0.03125 22.429688 0.6875 18.984375 0.6875 Z M 18.984375 -7.59375 C 21.171875 -7.59375 22.894531 -8.40625 24.15625 -10.03125 C 25.425781 -11.664062 26.0625 -13.828125 26.0625 -16.515625 C 26.0625 -19.046875 25.425781 -21.101562 24.15625 -22.6875 C 22.894531 -24.28125 21.171875 -25.078125 18.984375 -25.078125 C 16.835938 -25.078125 15.101562 -24.289062 13.78125 -22.71875 C 12.457031 -21.144531 11.796875 -19.078125 11.796875 -16.515625 C 11.796875 -13.785156 12.457031 -11.613281 13.78125 -10 C 15.101562 -8.394531 16.835938 -7.59375 18.984375 -7.59375 Z M 18.984375 -7.59375 "/></g></g></g><g fill="#ffffff" fill-opacity="1"><g transform="translate(288.06797, 101.828092)"><g><path d="M 12.828125 0 L 3.171875 0 L 3.171875 -32.625 L 12.828125 -32.625 L 12.828125 -29.109375 C 13.941406 -30.753906 15.175781 -31.863281 16.53125 -32.4375 C 17.894531 -33.019531 19.441406 -33.3125 21.171875 -33.3125 L 22.609375 -33.3125 L 22.609375 -24.109375 L 20.765625 -24.109375 C 19.421875 -24.109375 18.304688 -23.953125 17.421875 -23.640625 C 16.546875 -23.335938 15.820312 -22.914062 15.25 -22.375 C 14.40625 -21.570312 13.789062 -20.488281 13.40625 -19.125 C 13.019531 -17.769531 12.828125 -15.976562 12.828125 -13.75 Z M 12.828125 0 "/></g></g></g><g fill="#ffffff" fill-opacity="1"><g transform="translate(306.474834, 101.828092)"><g><path d="M 12.828125 0 L 3.171875 0 L 3.171875 -43.890625 L 12.828125 -43.890625 L 12.828125 -21.171875 L 23.1875 -32.625 L 35.09375 -32.625 L 21.6875 -18.578125 L 35.84375 0 L 24.328125 0 L 12.828125 -15.65625 Z M 12.828125 0 "/></g></g></g><g fill="#ffffff" fill-opacity="1"><g transform="translate(337.192187, 101.828092)"><g><path d="M 11.328125 0 L 0.453125 0 L 11.21875 -16.515625 L 0.40625 -32.625 L 11.328125 -32.625 L 17.203125 -22.890625 L 23.25 -32.625 L 34.40625 -32.625 L 23.296875 -16.515625 L 34.34375 0 L 23.296875 0 L 17.265625 -9.953125 Z M 11.328125 0 "/></g></g></g><g fill="#ffffff" fill-opacity="1"><g transform="translate(76.278538, 113.569714)"><g><path d="M 2.140625 0.078125 C 1.765625 0.078125 1.398438 0.03125 1.046875 -0.0625 C 0.691406 -0.164062 0.40625 -0.300781 0.1875 -0.46875 L 0.5625 -1.3125 C 0.769531 -1.15625 1.015625 -1.03125 1.296875 -0.9375 C 1.585938 -0.851562 1.875 -0.8125 2.15625 -0.8125 C 2.46875 -0.8125 2.695312 -0.859375 2.84375 -0.953125 C 3 -1.046875 3.078125 -1.171875 3.078125 -1.328125 C 3.078125 -1.441406 3.03125 -1.535156 2.9375 -1.609375 C 2.851562 -1.679688 2.738281 -1.738281 2.59375 -1.78125 C 2.457031 -1.832031 2.269531 -1.882812 2.03125 -1.9375 C 1.664062 -2.03125 1.363281 -2.117188 1.125 -2.203125 C 0.894531 -2.285156 0.695312 -2.421875 0.53125 -2.609375 C 0.363281 -2.804688 0.28125 -3.066406 0.28125 -3.390625 C 0.28125 -3.671875 0.351562 -3.921875 0.5 -4.140625 C 0.65625 -4.367188 0.882812 -4.550781 1.1875 -4.6875 C 1.5 -4.820312 1.875 -4.890625 2.3125 -4.890625 C 2.613281 -4.890625 2.910156 -4.851562 3.203125 -4.78125 C 3.503906 -4.707031 3.765625 -4.597656 3.984375 -4.453125 L 3.640625 -3.609375 C 3.191406 -3.859375 2.75 -3.984375 2.3125 -3.984375 C 2 -3.984375 1.765625 -3.929688 1.609375 -3.828125 C 1.460938 -3.734375 1.390625 -3.601562 1.390625 -3.4375 C 1.390625 -3.28125 1.472656 -3.160156 1.640625 -3.078125 C 1.816406 -2.992188 2.082031 -2.914062 2.4375 -2.84375 C 2.800781 -2.75 3.097656 -2.660156 3.328125 -2.578125 C 3.566406 -2.492188 3.769531 -2.359375 3.9375 -2.171875 C 4.101562 -1.984375 4.1875 -1.726562 4.1875 -1.40625 C 4.1875 -1.132812 4.109375 -0.882812 3.953125 -0.65625 C 3.796875 -0.425781 3.566406 -0.242188 3.265625 -0.109375 C 2.960938 0.015625 2.585938 0.078125 2.140625 0.078125 Z M 2.140625 0.078125 "/></g></g></g><g fill="#ffffff" fill-opacity="1"><g transform="translate(82.536525, 113.569714)"><g><path d="M 2.890625 0.078125 C 2.390625 0.078125 1.941406 -0.0234375 1.546875 -0.234375 C 1.148438 -0.453125 0.835938 -0.75 0.609375 -1.125 C 0.378906 -1.5 0.265625 -1.925781 0.265625 -2.40625 C 0.265625 -2.875 0.378906 -3.296875 0.609375 -3.671875 C 0.835938 -4.046875 1.148438 -4.34375 1.546875 -4.5625 C 1.941406 -4.78125 2.390625 -4.890625 2.890625 -4.890625 C 3.390625 -4.890625 3.835938 -4.78125 4.234375 -4.5625 C 4.628906 -4.34375 4.941406 -4.046875 5.171875 -3.671875 C 5.398438 -3.296875 5.515625 -2.875 5.515625 -2.40625 C 5.515625 -1.925781 5.398438 -1.5 5.171875 -1.125 C 4.941406 -0.75 4.628906 -0.453125 4.234375 -0.234375 C 3.835938 -0.0234375 3.390625 0.078125 2.890625 0.078125 Z M 2.890625 -0.859375 C 3.171875 -0.859375 3.425781 -0.921875 3.65625 -1.046875 C 3.882812 -1.179688 4.0625 -1.363281 4.1875 -1.59375 C 4.320312 -1.832031 4.390625 -2.101562 4.390625 -2.40625 C 4.390625 -2.695312 4.320312 -2.957031 4.1875 -3.1875 C 4.0625 -3.425781 3.882812 -3.609375 3.65625 -3.734375 C 3.425781 -3.867188 3.171875 -3.9375 2.890625 -3.9375 C 2.609375 -3.9375 2.351562 -3.867188 2.125 -3.734375 C 1.894531 -3.609375 1.710938 -3.425781 1.578125 -3.1875 C 1.453125 -2.957031 1.390625 -2.695312 1.390625 -2.40625 C 1.390625 -2.101562 1.453125 -1.832031 1.578125 -1.59375 C 1.710938 -1.363281 1.894531 -1.179688 2.125 -1.046875 C 2.351562 -0.921875 2.609375 -0.859375 2.890625 -0.859375 Z M 2.890625 -0.859375 "/></g></g></g><g fill="#ffffff" fill-opacity="1"><g transform="translate(90.208052, 113.569714)"><g><path d="M 0.5625 -4.796875 L 1.6875 -4.796875 L 1.6875 -0.90625 L 4.09375 -0.90625 L 4.09375 0 L 0.5625 0 Z M 0.5625 -4.796875 "/></g></g></g><g fill="#ffffff" fill-opacity="1"><g transform="translate(96.232734, 113.569714)"><g><path d="M 2.703125 0.078125 C 2.015625 0.078125 1.476562 -0.109375 1.09375 -0.484375 C 0.71875 -0.867188 0.53125 -1.410156 0.53125 -2.109375 L 0.53125 -4.796875 L 1.640625 -4.796875 L 1.640625 -2.15625 C 1.640625 -1.289062 1.992188 -0.859375 2.703125 -0.859375 C 3.054688 -0.859375 3.320312 -0.960938 3.5 -1.171875 C 3.6875 -1.378906 3.78125 -1.707031 3.78125 -2.15625 L 3.78125 -4.796875 L 4.875 -4.796875 L 4.875 -2.109375 C 4.875 -1.410156 4.679688 -0.867188 4.296875 -0.484375 C 3.921875 -0.109375 3.390625 0.078125 2.703125 0.078125 Z M 2.703125 0.078125 "/></g></g></g><g fill="#ffffff" fill-opacity="1"><g transform="translate(103.520002, 113.569714)"><g><path d="M 2.875 0.078125 C 2.382812 0.078125 1.941406 -0.0234375 1.546875 -0.234375 C 1.148438 -0.453125 0.835938 -0.75 0.609375 -1.125 C 0.378906 -1.5 0.265625 -1.925781 0.265625 -2.40625 C 0.265625 -2.875 0.378906 -3.296875 0.609375 -3.671875 C 0.835938 -4.054688 1.148438 -4.351562 1.546875 -4.5625 C 1.941406 -4.78125 2.382812 -4.890625 2.875 -4.890625 C 3.289062 -4.890625 3.664062 -4.8125 4 -4.65625 C 4.332031 -4.507812 4.613281 -4.300781 4.84375 -4.03125 L 4.140625 -3.375 C 3.816406 -3.75 3.410156 -3.9375 2.921875 -3.9375 C 2.628906 -3.9375 2.363281 -3.867188 2.125 -3.734375 C 1.894531 -3.609375 1.710938 -3.425781 1.578125 -3.1875 C 1.453125 -2.957031 1.390625 -2.695312 1.390625 -2.40625 C 1.390625 -2.101562 1.453125 -1.832031 1.578125 -1.59375 C 1.710938 -1.363281 1.894531 -1.179688 2.125 -1.046875 C 2.363281 -0.921875 2.628906 -0.859375 2.921875 -0.859375 C 3.410156 -0.859375 3.816406 -1.050781 4.140625 -1.4375 L 4.84375 -0.78125 C 4.613281 -0.5 4.328125 -0.285156 3.984375 -0.140625 C 3.648438 0.00390625 3.28125 0.078125 2.875 0.078125 Z M 2.875 0.078125 "/></g></g></g><g fill="#ffffff" fill-opacity="1"><g transform="translate(110.42987, 113.569714)"><g><path d="M 0.5625 -4.796875 L 1.6875 -4.796875 L 1.6875 0 L 0.5625 0 Z M 0.5625 -4.796875 "/></g></g></g><g fill="#ffffff" fill-opacity="1"><g transform="translate(114.560692, 113.569714)"><g><path d="M 2.890625 0.078125 C 2.390625 0.078125 1.941406 -0.0234375 1.546875 -0.234375 C 1.148438 -0.453125 0.835938 -0.75 0.609375 -1.125 C 0.378906 -1.5 0.265625 -1.925781 0.265625 -2.40625 C 0.265625 -2.875 0.378906 -3.296875 0.609375 -3.671875 C 0.835938 -4.046875 1.148438 -4.34375 1.546875 -4.5625 C 1.941406 -4.78125 2.390625 -4.890625 2.890625 -4.890625 C 3.390625 -4.890625 3.835938 -4.78125 4.234375 -4.5625 C 4.628906 -4.34375 4.941406 -4.046875 5.171875 -3.671875 C 5.398438 -3.296875 5.515625 -2.875 5.515625 -2.40625 C 5.515625 -1.925781 5.398438 -1.5 5.171875 -1.125 C 4.941406 -0.75 4.628906 -0.453125 4.234375 -0.234375 C 3.835938 -0.0234375 3.390625 0.078125 2.890625 0.078125 Z M 2.890625 -0.859375 C 3.171875 -0.859375 3.425781 -0.921875 3.65625 -1.046875 C 3.882812 -1.179688 4.0625 -1.363281 4.1875 -1.59375 C 4.320312 -1.832031 4.390625 -2.101562 4.390625 -2.40625 C 4.390625 -2.695312 4.320312 -2.957031 4.1875 -3.1875 C 4.0625 -3.425781 3.882812 -3.609375 3.65625 -3.734375 C 3.425781 -3.867188 3.171875 -3.9375 2.890625 -3.9375 C 2.609375 -3.9375 2.351562 -3.867188 2.125 -3.734375 C 1.894531 -3.609375 1.710938 -3.425781 1.578125 -3.1875 C 1.453125 -2.957031 1.390625 -2.695312 1.390625 -2.40625 C 1.390625 -2.101562 1.453125 -1.832031 1.578125 -1.59375 C 1.710938 -1.363281 1.894531 -1.179688 2.125 -1.046875 C 2.351562 -0.921875 2.609375 -0.859375 2.890625 -0.859375 Z M 2.890625 -0.859375 "/></g></g></g><g fill="#ffffff" fill-opacity="1"><g transform="translate(122.23222, 113.569714)"><g><path d="M 4.96875 -4.796875 L 4.96875 0 L 4.0625 0 L 1.671875 -2.921875 L 1.671875 0 L 0.5625 0 L 0.5625 -4.796875 L 1.484375 -4.796875 L 3.875 -1.890625 L 3.875 -4.796875 Z M 4.96875 -4.796875 "/></g></g></g><g fill="#ffffff" fill-opacity="1"><g transform="translate(129.656727, 113.569714)"><g><path d="M 4.28125 -0.890625 L 4.28125 0 L 0.5625 0 L 0.5625 -4.796875 L 4.203125 -4.796875 L 4.203125 -3.90625 L 1.671875 -3.90625 L 1.671875 -2.875 L 3.90625 -2.875 L 3.90625 -2 L 1.671875 -2 L 1.671875 -0.890625 Z M 4.28125 -0.890625 "/></g></g></g><g fill="#ffffff" fill-opacity="1"><g transform="translate(136.141161, 113.569714)"><g><path d="M 2.140625 0.078125 C 1.765625 0.078125 1.398438 0.03125 1.046875 -0.0625 C 0.691406 -0.164062 0.40625 -0.300781 0.1875 -0.46875 L 0.5625 -1.3125 C 0.769531 -1.15625 1.015625 -1.03125 1.296875 -0.9375 C 1.585938 -0.851562 1.875 -0.8125 2.15625 -0.8125 C 2.46875 -0.8125 2.695312 -0.859375 2.84375 -0.953125 C 3 -1.046875 3.078125 -1.171875 3.078125 -1.328125 C 3.078125 -1.441406 3.03125 -1.535156 2.9375 -1.609375 C 2.851562 -1.679688 2.738281 -1.738281 2.59375 -1.78125 C 2.457031 -1.832031 2.269531 -1.882812 2.03125 -1.9375 C 1.664062 -2.03125 1.363281 -2.117188 1.125 -2.203125 C 0.894531 -2.285156 0.695312 -2.421875 0.53125 -2.609375 C 0.363281 -2.804688 0.28125 -3.066406 0.28125 -3.390625 C 0.28125 -3.671875 0.351562 -3.921875 0.5 -4.140625 C 0.65625 -4.367188 0.882812 -4.550781 1.1875 -4.6875 C 1.5 -4.820312 1.875 -4.890625 2.3125 -4.890625 C 2.613281 -4.890625 2.910156 -4.851562 3.203125 -4.78125 C 3.503906 -4.707031 3.765625 -4.597656 3.984375 -4.453125 L 3.640625 -3.609375 C 3.191406 -3.859375 2.75 -3.984375 2.3125 -3.984375 C 2 -3.984375 1.765625 -3.929688 1.609375 -3.828125 C 1.460938 -3.734375 1.390625 -3.601562 1.390625 -3.4375 C 1.390625 -3.28125 1.472656 -3.160156 1.640625 -3.078125 C 1.816406 -2.992188 2.082031 -2.914062 2.4375 -2.84375 C 2.800781 -2.75 3.097656 -2.660156 3.328125 -2.578125 C 3.566406 -2.492188 3.769531 -2.359375 3.9375 -2.171875 C 4.101562 -1.984375 4.1875 -1.726562 4.1875 -1.40625 C 4.1875 -1.132812 4.109375 -0.882812 3.953125 -0.65625 C 3.796875 -0.425781 3.566406 -0.242188 3.265625 -0.109375 C 2.960938 0.015625 2.585938 0.078125 2.140625 0.078125 Z M 2.140625 0.078125 "/></g></g></g><g fill="#ffffff" fill-opacity="1"><g transform="translate(142.39915, 113.569714)"><g/></g></g><g fill="#ffffff" fill-opacity="1"><g transform="translate(146.221187, 113.569714)"><g><path d="M 0.5625 -4.796875 L 1.6875 -4.796875 L 1.6875 0 L 0.5625 0 Z M 0.5625 -4.796875 "/></g></g></g><g fill="#ffffff" fill-opacity="1"><g transform="translate(150.352005, 113.569714)"><g><path d="M 4.96875 -4.796875 L 4.96875 0 L 4.0625 0 L 1.671875 -2.921875 L 1.671875 0 L 0.5625 0 L 0.5625 -4.796875 L 1.484375 -4.796875 L 3.875 -1.890625 L 3.875 -4.796875 Z M 4.96875 -4.796875 "/></g></g></g><g fill="#ffffff" fill-opacity="1"><g transform="translate(157.776508, 113.569714)"><g><path d="M 1.5625 -3.890625 L 0.03125 -3.890625 L 0.03125 -4.796875 L 4.21875 -4.796875 L 4.21875 -3.890625 L 2.671875 -3.890625 L 2.671875 0 L 1.5625 0 Z M 1.5625 -3.890625 "/></g></g></g><g fill="#ffffff" fill-opacity="1"><g transform="translate(163.897253, 113.569714)"><g><path d="M 4.28125 -0.890625 L 4.28125 0 L 0.5625 0 L 0.5625 -4.796875 L 4.203125 -4.796875 L 4.203125 -3.90625 L 1.671875 -3.90625 L 1.671875 -2.875 L 3.90625 -2.875 L 3.90625 -2 L 1.671875 -2 L 1.671875 -0.890625 Z M 4.28125 -0.890625 "/></g></g></g><g fill="#ffffff" fill-opacity="1"><g transform="translate(170.381683, 113.569714)"><g><path d="M 0.5625 -4.796875 L 1.6875 -4.796875 L 1.6875 -0.90625 L 4.09375 -0.90625 L 4.09375 0 L 0.5625 0 Z M 0.5625 -4.796875 "/></g></g></g><g fill="#ffffff" fill-opacity="1"><g transform="translate(176.406363, 113.569714)"><g><path d="M 0.5625 -4.796875 L 1.6875 -4.796875 L 1.6875 0 L 0.5625 0 Z M 0.5625 -4.796875 "/></g></g></g><g fill="#ffffff" fill-opacity="1"><g transform="translate(180.537181, 113.569714)"><g><path d="M 3.8125 -2.46875 L 4.828125 -2.46875 L 4.828125 -0.53125 C 4.566406 -0.332031 4.265625 -0.179688 3.921875 -0.078125 C 3.578125 0.0234375 3.234375 0.078125 2.890625 0.078125 C 2.390625 0.078125 1.941406 -0.0234375 1.546875 -0.234375 C 1.148438 -0.453125 0.835938 -0.75 0.609375 -1.125 C 0.378906 -1.5 0.265625 -1.925781 0.265625 -2.40625 C 0.265625 -2.875 0.378906 -3.296875 0.609375 -3.671875 C 0.835938 -4.054688 1.148438 -4.351562 1.546875 -4.5625 C 1.953125 -4.78125 2.40625 -4.890625 2.90625 -4.890625 C 3.332031 -4.890625 3.710938 -4.816406 4.046875 -4.671875 C 4.390625 -4.523438 4.679688 -4.316406 4.921875 -4.046875 L 4.203125 -3.390625 C 3.859375 -3.753906 3.445312 -3.9375 2.96875 -3.9375 C 2.65625 -3.9375 2.378906 -3.867188 2.140625 -3.734375 C 1.910156 -3.609375 1.726562 -3.429688 1.59375 -3.203125 C 1.457031 -2.972656 1.390625 -2.707031 1.390625 -2.40625 C 1.390625 -2.101562 1.457031 -1.832031 1.59375 -1.59375 C 1.726562 -1.363281 1.910156 -1.179688 2.140625 -1.046875 C 2.378906 -0.921875 2.648438 -0.859375 2.953125 -0.859375 C 3.265625 -0.859375 3.550781 -0.925781 3.8125 -1.0625 Z M 3.8125 -2.46875 "/></g></g></g><g fill="#ffffff" fill-opacity="1"><g transform="translate(187.707789, 113.569714)"><g><path d="M 4.28125 -0.890625 L 4.28125 0 L 0.5625 0 L 0.5625 -4.796875 L 4.203125 -4.796875 L 4.203125 -3.90625 L 1.671875 -3.90625 L 1.671875 -2.875 L 3.90625 -2.875 L 3.90625 -2 L 1.671875 -2 L 1.671875 -0.890625 Z M 4.28125 -0.890625 "/></g></g></g><g fill="#ffffff" fill-opacity="1"><g transform="translate(194.192219, 113.569714)"><g><path d="M 4.96875 -4.796875 L 4.96875 0 L 4.0625 0 L 1.671875 -2.921875 L 1.671875 0 L 0.5625 0 L 0.5625 -4.796875 L 1.484375 -4.796875 L 3.875 -1.890625 L 3.875 -4.796875 Z M 4.96875 -4.796875 "/></g></g></g><g fill="#ffffff" fill-opacity="1"><g transform="translate(201.616722, 113.569714)"><g><path d="M 1.5625 -3.890625 L 0.03125 -3.890625 L 0.03125 -4.796875 L 4.21875 -4.796875 L 4.21875 -3.890625 L 2.671875 -3.890625 L 2.671875 0 L 1.5625 0 Z M 1.5625 -3.890625 "/></g></g></g><g fill="#ffffff" fill-opacity="1"><g transform="translate(207.737467, 113.569714)"><g><path d="M 4.28125 -0.890625 L 4.28125 0 L 0.5625 0 L 0.5625 -4.796875 L 4.203125 -4.796875 L 4.203125 -3.90625 L 1.671875 -3.90625 L 1.671875 -2.875 L 3.90625 -2.875 L 3.90625 -2 L 1.671875 -2 L 1.671875 -0.890625 Z M 4.28125 -0.890625 "/></g></g></g><g fill="#ffffff" fill-opacity="1"><g transform="translate(214.221897, 113.569714)"><g><path d="M 2.140625 0.078125 C 1.765625 0.078125 1.398438 0.03125 1.046875 -0.0625 C 0.691406 -0.164062 0.40625 -0.300781 0.1875 -0.46875 L 0.5625 -1.3125 C 0.769531 -1.15625 1.015625 -1.03125 1.296875 -0.9375 C 1.585938 -0.851562 1.875 -0.8125 2.15625 -0.8125 C 2.46875 -0.8125 2.695312 -0.859375 2.84375 -0.953125 C 3 -1.046875 3.078125 -1.171875 3.078125 -1.328125 C 3.078125 -1.441406 3.03125 -1.535156 2.9375 -1.609375 C 2.851562 -1.679688 2.738281 -1.738281 2.59375 -1.78125 C 2.457031 -1.832031 2.269531 -1.882812 2.03125 -1.9375 C 1.664062 -2.03125 1.363281 -2.117188 1.125 -2.203125 C 0.894531 -2.285156 0.695312 -2.421875 0.53125 -2.609375 C 0.363281 -2.804688 0.28125 -3.066406 0.28125 -3.390625 C 0.28125 -3.671875 0.351562 -3.921875 0.5 -4.140625 C 0.65625 -4.367188 0.882812 -4.550781 1.1875 -4.6875 C 1.5 -4.820312 1.875 -4.890625 2.3125 -4.890625 C 2.613281 -4.890625 2.910156 -4.851562 3.203125 -4.78125 C 3.503906 -4.707031 3.765625 -4.597656 3.984375 -4.453125 L 3.640625 -3.609375 C 3.191406 -3.859375 2.75 -3.984375 2.3125 -3.984375 C 2 -3.984375 1.765625 -3.929688 1.609375 -3.828125 C 1.460938 -3.734375 1.390625 -3.601562 1.390625 -3.4375 C 1.390625 -3.28125 1.472656 -3.160156 1.640625 -3.078125 C 1.816406 -2.992188 2.082031 -2.914062 2.4375 -2.84375 C 2.800781 -2.75 3.097656 -2.660156 3.328125 -2.578125 C 3.566406 -2.492188 3.769531 -2.359375 3.9375 -2.171875 C 4.101562 -1.984375 4.1875 -1.726562 4.1875 -1.40625 C 4.1875 -1.132812 4.109375 -0.882812 3.953125 -0.65625 C 3.796875 -0.425781 3.566406 -0.242188 3.265625 -0.109375 C 2.960938 0.015625 2.585938 0.078125 2.140625 0.078125 Z M 2.140625 0.078125 "/></g></g></g><g fill="#ffffff" fill-opacity="1"><g transform="translate(220.479881, 113.569714)"><g/></g></g><g fill="#ffffff" fill-opacity="1"><g transform="translate(224.301922, 113.569714)"><g><path d="M 2.640625 -4.796875 C 3.066406 -4.796875 3.4375 -4.722656 3.75 -4.578125 C 4.0625 -4.441406 4.300781 -4.242188 4.46875 -3.984375 C 4.644531 -3.722656 4.734375 -3.414062 4.734375 -3.0625 C 4.734375 -2.707031 4.644531 -2.398438 4.46875 -2.140625 C 4.300781 -1.878906 4.0625 -1.675781 3.75 -1.53125 C 3.4375 -1.394531 3.066406 -1.328125 2.640625 -1.328125 L 1.6875 -1.328125 L 1.6875 0 L 0.5625 0 L 0.5625 -4.796875 Z M 2.59375 -2.234375 C 2.925781 -2.234375 3.175781 -2.300781 3.34375 -2.4375 C 3.519531 -2.582031 3.609375 -2.789062 3.609375 -3.0625 C 3.609375 -3.332031 3.519531 -3.535156 3.34375 -3.671875 C 3.175781 -3.816406 2.925781 -3.890625 2.59375 -3.890625 L 1.6875 -3.890625 L 1.6875 -2.234375 Z M 2.59375 -2.234375 "/></g></g></g><g fill="#ffffff" fill-opacity="1"><g transform="translate(231.204919, 113.569714)"><g><path d="M 3.734375 -1.03125 L 1.5 -1.03125 L 1.078125 0 L -0.0625 0 L 2.078125 -4.796875 L 3.171875 -4.796875 L 5.328125 0 L 4.15625 0 Z M 3.375 -1.875 L 2.625 -3.703125 L 1.859375 -1.875 Z M 3.375 -1.875 "/></g></g></g><g fill="#ffffff" fill-opacity="1"><g transform="translate(238.341227, 113.569714)"><g><path d="M 3.625 0 L 2.703125 -1.34375 L 1.6875 -1.34375 L 1.6875 0 L 0.5625 0 L 0.5625 -4.796875 L 2.640625 -4.796875 C 3.066406 -4.796875 3.4375 -4.722656 3.75 -4.578125 C 4.0625 -4.441406 4.300781 -4.242188 4.46875 -3.984375 C 4.644531 -3.722656 4.734375 -3.414062 4.734375 -3.0625 C 4.734375 -2.707031 4.644531 -2.398438 4.46875 -2.140625 C 4.300781 -1.878906 4.0625 -1.679688 3.75 -1.546875 L 4.828125 0 Z M 3.609375 -3.0625 C 3.609375 -3.332031 3.519531 -3.535156 3.34375 -3.671875 C 3.175781 -3.816406 2.925781 -3.890625 2.59375 -3.890625 L 1.6875 -3.890625 L 1.6875 -2.21875 L 2.59375 -2.21875 C 2.925781 -2.21875 3.175781 -2.289062 3.34375 -2.4375 C 3.519531 -2.582031 3.609375 -2.789062 3.609375 -3.0625 Z M 3.609375 -3.0625 "/></g></g></g><g fill="#ffffff" fill-opacity="1"><g transform="translate(245.264815, 113.569714)"><g><path d="M 3.734375 -1.03125 L 1.5 -1.03125 L 1.078125 0 L -0.0625 0 L 2.078125 -4.796875 L 3.171875 -4.796875 L 5.328125 0 L 4.15625 0 Z M 3.375 -1.875 L 2.625 -3.703125 L 1.859375 -1.875 Z M 3.375 -1.875 "/></g></g></g><g fill="#ffffff" fill-opacity="1"><g transform="translate(252.401124, 113.569714)"><g/></g></g><g fill="#ffffff" fill-opacity="1"><g transform="translate(256.223157, 113.569714)"><g><path d="M 2.703125 0.078125 C 2.015625 0.078125 1.476562 -0.109375 1.09375 -0.484375 C 0.71875 -0.867188 0.53125 -1.410156 0.53125 -2.109375 L 0.53125 -4.796875 L 1.640625 -4.796875 L 1.640625 -2.15625 C 1.640625 -1.289062 1.992188 -0.859375 2.703125 -0.859375 C 3.054688 -0.859375 3.320312 -0.960938 3.5 -1.171875 C 3.6875 -1.378906 3.78125 -1.707031 3.78125 -2.15625 L 3.78125 -4.796875 L 4.875 -4.796875 L 4.875 -2.109375 C 4.875 -1.410156 4.679688 -0.867188 4.296875 -0.484375 C 3.921875 -0.109375 3.390625 0.078125 2.703125 0.078125 Z M 2.703125 0.078125 "/></g></g></g><g fill="#ffffff" fill-opacity="1"><g transform="translate(263.510429, 113.569714)"><g><path d="M 4.96875 -4.796875 L 4.96875 0 L 4.0625 0 L 1.671875 -2.921875 L 1.671875 0 L 0.5625 0 L 0.5625 -4.796875 L 1.484375 -4.796875 L 3.875 -1.890625 L 3.875 -4.796875 Z M 4.96875 -4.796875 "/></g></g></g><g fill="#ffffff" fill-opacity="1"><g transform="translate(270.934932, 113.569714)"><g/></g></g><g fill="#ffffff" fill-opacity="1"><g transform="translate(274.756965, 113.569714)"><g><path d="M 1.6875 -3.90625 L 1.6875 -2.640625 L 3.90625 -2.640625 L 3.90625 -1.75 L 1.6875 -1.75 L 1.6875 0 L 0.5625 0 L 0.5625 -4.796875 L 4.203125 -4.796875 L 4.203125 -3.90625 Z M 1.6875 -3.90625 "/></g></g></g><g fill="#ffffff" fill-opacity="1"><g transform="translate(281.021816, 113.569714)"><g><path d="M 2.703125 0.078125 C 2.015625 0.078125 1.476562 -0.109375 1.09375 -0.484375 C 0.71875 -0.867188 0.53125 -1.410156 0.53125 -2.109375 L 0.53125 -4.796875 L 1.640625 -4.796875 L 1.640625 -2.15625 C 1.640625 -1.289062 1.992188 -0.859375 2.703125 -0.859375 C 3.054688 -0.859375 3.320312 -0.960938 3.5 -1.171875 C 3.6875 -1.378906 3.78125 -1.707031 3.78125 -2.15625 L 3.78125 -4.796875 L 4.875 -4.796875 L 4.875 -2.109375 C 4.875 -1.410156 4.679688 -0.867188 4.296875 -0.484375 C 3.921875 -0.109375 3.390625 0.078125 2.703125 0.078125 Z M 2.703125 0.078125 "/></g></g></g><g fill="#ffffff" fill-opacity="1"><g transform="translate(288.309088, 113.569714)"><g><path d="M 1.5625 -3.890625 L 0.03125 -3.890625 L 0.03125 -4.796875 L 4.21875 -4.796875 L 4.21875 -3.890625 L 2.671875 -3.890625 L 2.671875 0 L 1.5625 0 Z M 1.5625 -3.890625 "/></g></g></g><g fill="#ffffff" fill-opacity="1"><g transform="translate(294.429833, 113.569714)"><g><path d="M 2.703125 0.078125 C 2.015625 0.078125 1.476562 -0.109375 1.09375 -0.484375 C 0.71875 -0.867188 0.53125 -1.410156 0.53125 -2.109375 L 0.53125 -4.796875 L 1.640625 -4.796875 L 1.640625 -2.15625 C 1.640625 -1.289062 1.992188 -0.859375 2.703125 -0.859375 C 3.054688 -0.859375 3.320312 -0.960938 3.5 -1.171875 C 3.6875 -1.378906 3.78125 -1.707031 3.78125 -2.15625 L 3.78125 -4.796875 L 4.875 -4.796875 L 4.875 -2.109375 C 4.875 -1.410156 4.679688 -0.867188 4.296875 -0.484375 C 3.921875 -0.109375 3.390625 0.078125 2.703125 0.078125 Z M 2.703125 0.078125 "/></g></g></g><g fill="#ffffff" fill-opacity="1"><g transform="translate(301.717106, 113.569714)"><g><path d="M 3.625 0 L 2.703125 -1.34375 L 1.6875 -1.34375 L 1.6875 0 L 0.5625 0 L 0.5625 -4.796875 L 2.640625 -4.796875 C 3.066406 -4.796875 3.4375 -4.722656 3.75 -4.578125 C 4.0625 -4.441406 4.300781 -4.242188 4.46875 -3.984375 C 4.644531 -3.722656 4.734375 -3.414062 4.734375 -3.0625 C 4.734375 -2.707031 4.644531 -2.398438 4.46875 -2.140625 C 4.300781 -1.878906 4.0625 -1.679688 3.75 -1.546875 L 4.828125 0 Z M 3.609375 -3.0625 C 3.609375 -3.332031 3.519531 -3.535156 3.34375 -3.671875 C 3.175781 -3.816406 2.925781 -3.890625 2.59375 -3.890625 L 1.6875 -3.890625 L 1.6875 -2.21875 L 2.59375 -2.21875 C 2.925781 -2.21875 3.175781 -2.289062 3.34375 -2.4375 C 3.519531 -2.582031 3.609375 -2.789062 3.609375 -3.0625 Z M 3.609375 -3.0625 "/></g></g></g><g fill="#ffffff" fill-opacity="1"><g transform="translate(308.640694, 113.569714)"><g><path d="M 2.890625 0.078125 C 2.390625 0.078125 1.941406 -0.0234375 1.546875 -0.234375 C 1.148438 -0.453125 0.835938 -0.75 0.609375 -1.125 C 0.378906 -1.5 0.265625 -1.925781 0.265625 -2.40625 C 0.265625 -2.875 0.378906 -3.296875 0.609375 -3.671875 C 0.835938 -4.046875 1.148438 -4.34375 1.546875 -4.5625 C 1.941406 -4.78125 2.390625 -4.890625 2.890625 -4.890625 C 3.390625 -4.890625 3.835938 -4.78125 4.234375 -4.5625 C 4.628906 -4.34375 4.941406 -4.046875 5.171875 -3.671875 C 5.398438 -3.296875 5.515625 -2.875 5.515625 -2.40625 C 5.515625 -1.925781 5.398438 -1.5 5.171875 -1.125 C 4.941406 -0.75 4.628906 -0.453125 4.234375 -0.234375 C 3.835938 -0.0234375 3.390625 0.078125 2.890625 0.078125 Z M 2.890625 -0.859375 C 3.171875 -0.859375 3.425781 -0.921875 3.65625 -1.046875 C 3.882812 -1.179688 4.0625 -1.363281 4.1875 -1.59375 C 4.320312 -1.832031 4.390625 -2.101562 4.390625 -2.40625 C 4.390625 -2.695312 4.320312 -2.957031 4.1875 -3.1875 C 4.0625 -3.425781 3.882812 -3.609375 3.65625 -3.734375 C 3.425781 -3.867188 3.171875 -3.9375 2.890625 -3.9375 C 2.609375 -3.9375 2.351562 -3.867188 2.125 -3.734375 C 1.894531 -3.609375 1.710938 -3.425781 1.578125 -3.1875 C 1.453125 -2.957031 1.390625 -2.695312 1.390625 -2.40625 C 1.390625 -2.101562 1.453125 -1.832031 1.578125 -1.59375 C 1.710938 -1.363281 1.894531 -1.179688 2.125 -1.046875 C 2.351562 -0.921875 2.609375 -0.859375 2.890625 -0.859375 Z M 2.890625 -0.859375 "/></g></g></g><g fill="#ffffff" fill-opacity="1"><g transform="translate(316.312226, 113.569714)"><g/></g></g><g fill="#ffffff" fill-opacity="1"><g transform="translate(320.134258, 113.569714)"><g><path d="M 0.5625 -4.796875 L 2.75 -4.796875 C 3.269531 -4.796875 3.726562 -4.695312 4.125 -4.5 C 4.53125 -4.300781 4.84375 -4.019531 5.0625 -3.65625 C 5.28125 -3.300781 5.390625 -2.882812 5.390625 -2.40625 C 5.390625 -1.925781 5.28125 -1.503906 5.0625 -1.140625 C 4.84375 -0.773438 4.53125 -0.492188 4.125 -0.296875 C 3.726562 -0.0976562 3.269531 0 2.75 0 L 0.5625 0 Z M 2.703125 -0.90625 C 3.179688 -0.90625 3.5625 -1.039062 3.84375 -1.3125 C 4.125 -1.582031 4.265625 -1.945312 4.265625 -2.40625 C 4.265625 -2.863281 4.125 -3.222656 3.84375 -3.484375 C 3.5625 -3.753906 3.179688 -3.890625 2.703125 -3.890625 L 1.6875 -3.890625 L 1.6875 -0.90625 Z M 2.703125 -0.90625 "/></g></g></g><g fill="#ffffff" fill-opacity="1"><g transform="translate(327.682275, 113.569714)"><g><path d="M 0.5625 -4.796875 L 1.6875 -4.796875 L 1.6875 0 L 0.5625 0 Z M 0.5625 -4.796875 "/></g></g></g><g fill="#ffffff" fill-opacity="1"><g transform="translate(331.813093, 113.569714)"><g><path d="M 3.8125 -2.46875 L 4.828125 -2.46875 L 4.828125 -0.53125 C 4.566406 -0.332031 4.265625 -0.179688 3.921875 -0.078125 C 3.578125 0.0234375 3.234375 0.078125 2.890625 0.078125 C 2.390625 0.078125 1.941406 -0.0234375 1.546875 -0.234375 C 1.148438 -0.453125 0.835938 -0.75 0.609375 -1.125 C 0.378906 -1.5 0.265625 -1.925781 0.265625 -2.40625 C 0.265625 -2.875 0.378906 -3.296875 0.609375 -3.671875 C 0.835938 -4.054688 1.148438 -4.351562 1.546875 -4.5625 C 1.953125 -4.78125 2.40625 -4.890625 2.90625 -4.890625 C 3.332031 -4.890625 3.710938 -4.816406 4.046875 -4.671875 C 4.390625 -4.523438 4.679688 -4.316406 4.921875 -4.046875 L 4.203125 -3.390625 C 3.859375 -3.753906 3.445312 -3.9375 2.96875 -3.9375 C 2.65625 -3.9375 2.378906 -3.867188 2.140625 -3.734375 C 1.910156 -3.609375 1.726562 -3.429688 1.59375 -3.203125 C 1.457031 -2.972656 1.390625 -2.707031 1.390625 -2.40625 C 1.390625 -2.101562 1.457031 -1.832031 1.59375 -1.59375 C 1.726562 -1.363281 1.910156 -1.179688 2.140625 -1.046875 C 2.378906 -0.921875 2.648438 -0.859375 2.953125 -0.859375 C 3.265625 -0.859375 3.550781 -0.925781 3.8125 -1.0625 Z M 3.8125 -2.46875 "/></g></g></g><g fill="#ffffff" fill-opacity="1"><g transform="translate(338.98371, 113.569714)"><g><path d="M 0.5625 -4.796875 L 1.6875 -4.796875 L 1.6875 0 L 0.5625 0 Z M 0.5625 -4.796875 "/></g></g></g><g fill="#ffffff" fill-opacity="1"><g transform="translate(343.114528, 113.569714)"><g><path d="M 1.5625 -3.890625 L 0.03125 -3.890625 L 0.03125 -4.796875 L 4.21875 -4.796875 L 4.21875 -3.890625 L 2.671875 -3.890625 L 2.671875 0 L 1.5625 0 Z M 1.5625 -3.890625 "/></g></g></g><g fill="#ffffff" fill-opacity="1"><g transform="translate(349.235273, 113.569714)"><g><path d="M 3.734375 -1.03125 L 1.5 -1.03125 L 1.078125 0 L -0.0625 0 L 2.078125 -4.796875 L 3.171875 -4.796875 L 5.328125 0 L 4.15625 0 Z M 3.375 -1.875 L 2.625 -3.703125 L 1.859375 -1.875 Z M 3.375 -1.875 "/></g></g></g><g fill="#ffffff" fill-opacity="1"><g transform="translate(356.371582, 113.569714)"><g><path d="M 0.5625 -4.796875 L 1.6875 -4.796875 L 1.6875 -0.90625 L 4.09375 -0.90625 L 4.09375 0 L 0.5625 0 Z M 0.5625 -4.796875 "/></g></g></g><g fill="#ffffff" fill-opacity="1"><g transform="translate(362.396262, 113.569714)"><g><path d="M 0.90625 0.0625 C 0.71875 0.0625 0.554688 0 0.421875 -0.125 C 0.296875 -0.257812 0.234375 -0.425781 0.234375 -0.625 C 0.234375 -0.8125 0.296875 -0.96875 0.421875 -1.09375 C 0.554688 -1.21875 0.71875 -1.28125 0.90625 -1.28125 C 1.09375 -1.28125 1.25 -1.21875 1.375 -1.09375 C 1.5 -0.96875 1.5625 -0.8125 1.5625 -0.625 C 1.5625 -0.425781 1.5 -0.257812 1.375 -0.125 C 1.25 0 1.09375 0.0625 0.90625 0.0625 Z M 0.90625 0.0625 "/></g></g></g><g clip-path="url(#7b735a564f)"><g clip-path="url(#03f60a72bf)"><path fill="url(#544176dcc9)" d="M 0.503906 38.90625 L 0.503906 118.148438 L 76.011719 118.148438 L 76.011719 38.90625 Z M 0.503906 38.90625 " fill-rule="nonzero"/></g></g></svg>