<svg xmlns="http://www.w3.org/2000/svg" xmlns:xlink="http://www.w3.org/1999/xlink" width="450" zoomAndPan="magnify" viewBox="0 0 337.5 118.499997" height="158" preserveAspectRatio="xMidYMid meet" version="1.0"><defs><g/><clipPath id="6005302d10"><path d="M 6 25.621094 L 74.644531 25.621094 L 74.644531 97.320312 L 6 97.320312 Z M 6 25.621094 " clip-rule="nonzero"/></clipPath><clipPath id="1e88997459"><path d="M 45.34375 59.171875 L 14.722656 59.171875 C 13.535156 59.171875 12.675781 58.039062 12.996094 56.894531 L 21.402344 26.933594 C 21.621094 26.160156 22.324219 25.625 23.128906 25.625 L 53.75 25.625 C 54.9375 25.625 55.796875 26.761719 55.476562 27.902344 L 47.070312 57.863281 C 46.851562 58.636719 46.148438 59.171875 45.34375 59.171875 Z M 25.453125 81.789062 L 29.785156 66.359375 C 30.105469 65.21875 29.246094 64.082031 28.058594 64.082031 L 12.316406 64.082031 C 11.511719 64.082031 10.808594 64.617188 10.589844 65.390625 L 6.261719 80.820312 C 5.941406 81.960938 6.800781 83.097656 7.988281 83.097656 L 23.730469 83.097656 C 24.53125 83.097656 25.238281 82.5625 25.453125 81.789062 Z M 33.421875 65.390625 L 25.015625 95.351562 C 24.691406 96.496094 25.550781 97.628906 26.738281 97.628906 L 57.363281 97.628906 C 58.164062 97.628906 58.871094 97.09375 59.089844 96.320312 L 67.496094 66.359375 C 67.816406 65.21875 66.957031 64.082031 65.769531 64.082031 L 35.148438 64.082031 C 34.34375 64.082031 33.636719 64.617188 33.421875 65.390625 Z M 55.035156 41.46875 L 50.707031 56.894531 C 50.386719 58.039062 51.246094 59.171875 52.433594 59.171875 L 68.175781 59.171875 C 68.980469 59.171875 69.683594 58.636719 69.902344 57.863281 L 74.230469 42.4375 C 74.550781 41.292969 73.691406 40.160156 72.503906 40.160156 L 56.761719 40.160156 C 55.957031 40.160156 55.253906 40.695312 55.035156 41.46875 Z M 55.035156 41.46875 " clip-rule="nonzero"/></clipPath><linearGradient x1="114.296447" gradientTransform="matrix(0.144007, 0, 0, 0.144007, 6.193773, 25.626338)" y1="-47.633957" x2="357.864192" gradientUnits="userSpaceOnUse" y2="545.78808" id="c57202b88d"><stop stop-opacity="1" stop-color="rgb(10.998535%, 85.499573%, 100%)" offset="0"/><stop stop-opacity="1" stop-color="rgb(10.998535%, 85.499573%, 100%)" offset="0.0625"/><stop stop-opacity="1" stop-color="rgb(10.987854%, 85.427856%, 100%)" offset="0.09375"/><stop stop-opacity="1" stop-color="rgb(10.946655%, 85.140991%, 100%)" offset="0.0976563"/><stop stop-opacity="1" stop-color="rgb(10.916138%, 84.927368%, 100%)" offset="0.101562"/><stop stop-opacity="1" stop-color="rgb(10.88562%, 84.712219%, 100%)" offset="0.105469"/><stop stop-opacity="1" stop-color="rgb(10.855103%, 84.498596%, 100%)" offset="0.109375"/><stop stop-opacity="1" stop-color="rgb(10.823059%, 84.283447%, 100%)" offset="0.113281"/><stop stop-opacity="1" stop-color="rgb(10.792542%, 84.069824%, 100%)" offset="0.117188"/><stop stop-opacity="1" stop-color="rgb(10.760498%, 83.854675%, 100%)" offset="0.121094"/><stop stop-opacity="1" stop-color="rgb(10.72998%, 83.641052%, 100%)" offset="0.125"/><stop stop-opacity="1" stop-color="rgb(10.699463%, 83.425903%, 100%)" offset="0.128906"/><stop stop-opacity="1" stop-color="rgb(10.668945%, 83.21228%, 100%)" offset="0.132812"/><stop stop-opacity="1" stop-color="rgb(10.636902%, 82.997131%, 100%)" offset="0.136719"/><stop stop-opacity="1" stop-color="rgb(10.606384%, 82.783508%, 100%)" offset="0.140625"/><stop stop-opacity="1" stop-color="rgb(10.574341%, 82.568359%, 100%)" offset="0.144531"/><stop stop-opacity="1" stop-color="rgb(10.543823%, 82.354736%, 100%)" offset="0.148438"/><stop stop-opacity="1" stop-color="rgb(10.513306%, 82.139587%, 100%)" offset="0.152344"/><stop stop-opacity="1" stop-color="rgb(10.482788%, 81.925964%, 100%)" offset="0.15625"/><stop stop-opacity="1" stop-color="rgb(10.450745%, 81.710815%, 100%)" offset="0.160156"/><stop stop-opacity="1" stop-color="rgb(10.420227%, 81.497192%, 100%)" offset="0.164062"/><stop stop-opacity="1" stop-color="rgb(10.389709%, 81.282043%, 100%)" offset="0.167969"/><stop stop-opacity="1" stop-color="rgb(10.359192%, 81.06842%, 100%)" offset="0.171875"/><stop stop-opacity="1" stop-color="rgb(10.327148%, 80.853271%, 100%)" offset="0.175781"/><stop stop-opacity="1" stop-color="rgb(10.296631%, 80.639648%, 100%)" offset="0.179688"/><stop stop-opacity="1" stop-color="rgb(10.264587%, 80.4245%, 100%)" offset="0.183594"/><stop stop-opacity="1" stop-color="rgb(10.23407%, 80.210876%, 100%)" offset="0.1875"/><stop stop-opacity="1" stop-color="rgb(10.203552%, 79.995728%, 100%)" offset="0.191406"/><stop stop-opacity="1" stop-color="rgb(10.173035%, 79.782104%, 100%)" offset="0.195313"/><stop stop-opacity="1" stop-color="rgb(10.140991%, 79.566956%, 100%)" offset="0.199219"/><stop stop-opacity="1" stop-color="rgb(10.110474%, 79.353333%, 100%)" offset="0.203125"/><stop stop-opacity="1" stop-color="rgb(10.07843%, 79.138184%, 100%)" offset="0.207031"/><stop stop-opacity="1" stop-color="rgb(10.047913%, 78.924561%, 100%)" offset="0.210937"/><stop stop-opacity="1" stop-color="rgb(10.017395%, 78.709412%, 100%)" offset="0.214844"/><stop stop-opacity="1" stop-color="rgb(9.986877%, 78.495789%, 100%)" offset="0.21875"/><stop stop-opacity="1" stop-color="rgb(9.954834%, 78.282166%, 100%)" offset="0.222656"/><stop stop-opacity="1" stop-color="rgb(9.924316%, 78.068542%, 100%)" offset="0.226563"/><stop stop-opacity="1" stop-color="rgb(9.893799%, 77.853394%, 100%)" offset="0.230469"/><stop stop-opacity="1" stop-color="rgb(9.863281%, 77.639771%, 100%)" offset="0.234375"/><stop stop-opacity="1" stop-color="rgb(9.831238%, 77.424622%, 100%)" offset="0.238281"/><stop stop-opacity="1" stop-color="rgb(9.80072%, 77.210999%, 100%)" offset="0.242187"/><stop stop-opacity="1" stop-color="rgb(9.768677%, 76.99585%, 100%)" offset="0.246094"/><stop stop-opacity="1" stop-color="rgb(9.738159%, 76.782227%, 100%)" offset="0.25"/><stop stop-opacity="1" stop-color="rgb(9.707642%, 76.567078%, 100%)" offset="0.253906"/><stop stop-opacity="1" stop-color="rgb(9.677124%, 76.353455%, 100%)" offset="0.257812"/><stop stop-opacity="1" stop-color="rgb(9.645081%, 76.138306%, 100%)" offset="0.261719"/><stop stop-opacity="1" stop-color="rgb(9.614563%, 75.924683%, 100%)" offset="0.265625"/><stop stop-opacity="1" stop-color="rgb(9.58252%, 75.709534%, 100%)" offset="0.269531"/><stop stop-opacity="1" stop-color="rgb(9.552002%, 75.495911%, 100%)" offset="0.273438"/><stop stop-opacity="1" stop-color="rgb(9.521484%, 75.280762%, 100%)" offset="0.277344"/><stop stop-opacity="1" stop-color="rgb(9.490967%, 75.067139%, 100%)" offset="0.28125"/><stop stop-opacity="1" stop-color="rgb(9.458923%, 74.85199%, 100%)" offset="0.285156"/><stop stop-opacity="1" stop-color="rgb(9.428406%, 74.638367%, 100%)" offset="0.289062"/><stop stop-opacity="1" stop-color="rgb(9.397888%, 74.423218%, 100%)" offset="0.292969"/><stop stop-opacity="1" stop-color="rgb(9.367371%, 74.209595%, 100%)" offset="0.296875"/><stop stop-opacity="1" stop-color="rgb(9.335327%, 73.994446%, 100%)" offset="0.300781"/><stop stop-opacity="1" stop-color="rgb(9.30481%, 73.780823%, 100%)" offset="0.304688"/><stop stop-opacity="1" stop-color="rgb(9.272766%, 73.565674%, 100%)" offset="0.308594"/><stop stop-opacity="1" stop-color="rgb(9.242249%, 73.352051%, 100%)" offset="0.3125"/><stop stop-opacity="1" stop-color="rgb(9.211731%, 73.136902%, 100%)" offset="0.316406"/><stop stop-opacity="1" stop-color="rgb(9.181213%, 72.923279%, 100%)" offset="0.320312"/><stop stop-opacity="1" stop-color="rgb(9.14917%, 72.70813%, 100%)" offset="0.324219"/><stop stop-opacity="1" stop-color="rgb(9.118652%, 72.494507%, 100%)" offset="0.328125"/><stop stop-opacity="1" stop-color="rgb(9.086609%, 72.279358%, 100%)" offset="0.332031"/><stop stop-opacity="1" stop-color="rgb(9.056091%, 72.065735%, 100%)" offset="0.335938"/><stop stop-opacity="1" stop-color="rgb(9.025574%, 71.850586%, 100%)" offset="0.339844"/><stop stop-opacity="1" stop-color="rgb(8.995056%, 71.636963%, 100%)" offset="0.34375"/><stop stop-opacity="1" stop-color="rgb(8.963013%, 71.421814%, 100%)" offset="0.347656"/><stop stop-opacity="1" stop-color="rgb(8.932495%, 71.208191%, 100%)" offset="0.351562"/><stop stop-opacity="1" stop-color="rgb(8.900452%, 70.993042%, 100%)" offset="0.355469"/><stop stop-opacity="1" stop-color="rgb(8.869934%, 70.779419%, 100%)" offset="0.359375"/><stop stop-opacity="1" stop-color="rgb(8.839417%, 70.56427%, 100%)" offset="0.363281"/><stop stop-opacity="1" stop-color="rgb(8.808899%, 70.350647%, 100%)" offset="0.367188"/><stop stop-opacity="1" stop-color="rgb(8.776855%, 70.135498%, 100%)" offset="0.371094"/><stop stop-opacity="1" stop-color="rgb(8.746338%, 69.921875%, 100%)" offset="0.375"/><stop stop-opacity="1" stop-color="rgb(8.71582%, 69.706726%, 100%)" offset="0.378906"/><stop stop-opacity="1" stop-color="rgb(8.685303%, 69.493103%, 100%)" offset="0.382812"/><stop stop-opacity="1" stop-color="rgb(8.653259%, 69.277954%, 100%)" offset="0.386719"/><stop stop-opacity="1" stop-color="rgb(8.622742%, 69.064331%, 100%)" offset="0.390625"/><stop stop-opacity="1" stop-color="rgb(8.590698%, 68.849182%, 100%)" offset="0.394531"/><stop stop-opacity="1" stop-color="rgb(8.560181%, 68.635559%, 100%)" offset="0.398438"/><stop stop-opacity="1" stop-color="rgb(8.529663%, 68.42041%, 100%)" offset="0.402344"/><stop stop-opacity="1" stop-color="rgb(8.499146%, 68.206787%, 100%)" offset="0.40625"/><stop stop-opacity="1" stop-color="rgb(8.467102%, 67.991638%, 100%)" offset="0.410156"/><stop stop-opacity="1" stop-color="rgb(8.436584%, 67.778015%, 100%)" offset="0.414062"/><stop stop-opacity="1" stop-color="rgb(8.404541%, 67.562866%, 100%)" offset="0.417969"/><stop stop-opacity="1" stop-color="rgb(8.374023%, 67.349243%, 100%)" offset="0.421875"/><stop stop-opacity="1" stop-color="rgb(8.343506%, 67.134094%, 100%)" offset="0.425781"/><stop stop-opacity="1" stop-color="rgb(8.312988%, 66.920471%, 100%)" offset="0.429688"/><stop stop-opacity="1" stop-color="rgb(8.280945%, 66.705322%, 100%)" offset="0.433594"/><stop stop-opacity="1" stop-color="rgb(8.250427%, 66.491699%, 100%)" offset="0.4375"/><stop stop-opacity="1" stop-color="rgb(8.21991%, 66.278076%, 100%)" offset="0.441406"/><stop stop-opacity="1" stop-color="rgb(8.189392%, 66.064453%, 100%)" offset="0.445312"/><stop stop-opacity="1" stop-color="rgb(8.157349%, 65.849304%, 100%)" offset="0.449219"/><stop stop-opacity="1" stop-color="rgb(8.126831%, 65.635681%, 100%)" offset="0.453125"/><stop stop-opacity="1" stop-color="rgb(8.094788%, 65.420532%, 100%)" offset="0.457031"/><stop stop-opacity="1" stop-color="rgb(8.06427%, 65.206909%, 100%)" offset="0.460938"/><stop stop-opacity="1" stop-color="rgb(8.033752%, 64.99176%, 100%)" offset="0.464844"/><stop stop-opacity="1" stop-color="rgb(8.003235%, 64.778137%, 100%)" offset="0.46875"/><stop stop-opacity="1" stop-color="rgb(7.971191%, 64.562988%, 100%)" offset="0.472656"/><stop stop-opacity="1" stop-color="rgb(7.940674%, 64.349365%, 100%)" offset="0.476562"/><stop stop-opacity="1" stop-color="rgb(7.90863%, 64.134216%, 100%)" offset="0.480469"/><stop stop-opacity="1" stop-color="rgb(7.878113%, 63.920593%, 100%)" offset="0.484375"/><stop stop-opacity="1" stop-color="rgb(7.847595%, 63.705444%, 100%)" offset="0.488281"/><stop stop-opacity="1" stop-color="rgb(7.817078%, 63.491821%, 100%)" offset="0.492188"/><stop stop-opacity="1" stop-color="rgb(7.785034%, 63.276672%, 100%)" offset="0.496094"/><stop stop-opacity="1" stop-color="rgb(7.754517%, 63.063049%, 100%)" offset="0.5"/><stop stop-opacity="1" stop-color="rgb(7.723999%, 62.8479%, 100%)" offset="0.503906"/><stop stop-opacity="1" stop-color="rgb(7.693481%, 62.634277%, 100%)" offset="0.507812"/><stop stop-opacity="1" stop-color="rgb(7.661438%, 62.419128%, 100%)" offset="0.511719"/><stop stop-opacity="1" stop-color="rgb(7.63092%, 62.205505%, 100%)" offset="0.515625"/><stop stop-opacity="1" stop-color="rgb(7.598877%, 61.990356%, 100%)" offset="0.519531"/><stop stop-opacity="1" stop-color="rgb(7.568359%, 61.776733%, 100%)" offset="0.523438"/><stop stop-opacity="1" stop-color="rgb(7.537842%, 61.561584%, 100%)" offset="0.527344"/><stop stop-opacity="1" stop-color="rgb(7.507324%, 61.347961%, 100%)" offset="0.53125"/><stop stop-opacity="1" stop-color="rgb(7.475281%, 61.132812%, 100%)" offset="0.535156"/><stop stop-opacity="1" stop-color="rgb(7.444763%, 60.919189%, 100%)" offset="0.539062"/><stop stop-opacity="1" stop-color="rgb(7.41272%, 60.704041%, 100%)" offset="0.542969"/><stop stop-opacity="1" stop-color="rgb(7.382202%, 60.490417%, 100%)" offset="0.546875"/><stop stop-opacity="1" stop-color="rgb(7.351685%, 60.275269%, 100%)" offset="0.550781"/><stop stop-opacity="1" stop-color="rgb(7.321167%, 60.061646%, 100%)" offset="0.554688"/><stop stop-opacity="1" stop-color="rgb(7.289124%, 59.846497%, 100%)" offset="0.558594"/><stop stop-opacity="1" stop-color="rgb(7.258606%, 59.632874%, 100%)" offset="0.5625"/><stop stop-opacity="1" stop-color="rgb(7.226562%, 59.417725%, 100%)" offset="0.566406"/><stop stop-opacity="1" stop-color="rgb(7.196045%, 59.204102%, 100%)" offset="0.570312"/><stop stop-opacity="1" stop-color="rgb(7.165527%, 58.988953%, 100%)" offset="0.574219"/><stop stop-opacity="1" stop-color="rgb(7.13501%, 58.77533%, 100%)" offset="0.578125"/><stop stop-opacity="1" stop-color="rgb(7.102966%, 58.560181%, 100%)" offset="0.582031"/><stop stop-opacity="1" stop-color="rgb(7.072449%, 58.346558%, 100%)" offset="0.585938"/><stop stop-opacity="1" stop-color="rgb(7.041931%, 58.131409%, 100%)" offset="0.589844"/><stop stop-opacity="1" stop-color="rgb(7.011414%, 57.917786%, 100%)" offset="0.59375"/><stop stop-opacity="1" stop-color="rgb(6.97937%, 57.702637%, 100%)" offset="0.597656"/><stop stop-opacity="1" stop-color="rgb(6.948853%, 57.489014%, 100%)" offset="0.601562"/><stop stop-opacity="1" stop-color="rgb(6.916809%, 57.273865%, 100%)" offset="0.605469"/><stop stop-opacity="1" stop-color="rgb(6.886292%, 57.060242%, 100%)" offset="0.609375"/><stop stop-opacity="1" stop-color="rgb(6.855774%, 56.845093%, 100%)" offset="0.613281"/><stop stop-opacity="1" stop-color="rgb(6.825256%, 56.63147%, 100%)" offset="0.617188"/><stop stop-opacity="1" stop-color="rgb(6.793213%, 56.416321%, 100%)" offset="0.621094"/><stop stop-opacity="1" stop-color="rgb(6.762695%, 56.202698%, 100%)" offset="0.625"/><stop stop-opacity="1" stop-color="rgb(6.730652%, 55.987549%, 100%)" offset="0.628906"/><stop stop-opacity="1" stop-color="rgb(6.700134%, 55.773926%, 100%)" offset="0.632812"/><stop stop-opacity="1" stop-color="rgb(6.669617%, 55.558777%, 100%)" offset="0.636719"/><stop stop-opacity="1" stop-color="rgb(6.639099%, 55.345154%, 100%)" offset="0.640625"/><stop stop-opacity="1" stop-color="rgb(6.607056%, 55.130005%, 100%)" offset="0.644531"/><stop stop-opacity="1" stop-color="rgb(6.576538%, 54.916382%, 100%)" offset="0.648438"/><stop stop-opacity="1" stop-color="rgb(6.546021%, 54.702759%, 100%)" offset="0.652344"/><stop stop-opacity="1" stop-color="rgb(6.515503%, 54.489136%, 100%)" offset="0.65625"/><stop stop-opacity="1" stop-color="rgb(6.483459%, 54.273987%, 100%)" offset="0.660156"/><stop stop-opacity="1" stop-color="rgb(6.452942%, 54.060364%, 100%)" offset="0.664062"/><stop stop-opacity="1" stop-color="rgb(6.420898%, 53.845215%, 100%)" offset="0.667969"/><stop stop-opacity="1" stop-color="rgb(6.390381%, 53.631592%, 100%)" offset="0.671875"/><stop stop-opacity="1" stop-color="rgb(6.359863%, 53.416443%, 100%)" offset="0.675781"/><stop stop-opacity="1" stop-color="rgb(6.329346%, 53.20282%, 100%)" offset="0.679688"/><stop stop-opacity="1" stop-color="rgb(6.297302%, 52.987671%, 100%)" offset="0.683594"/><stop stop-opacity="1" stop-color="rgb(6.266785%, 52.774048%, 100%)" offset="0.6875"/><stop stop-opacity="1" stop-color="rgb(6.234741%, 52.558899%, 100%)" offset="0.691406"/><stop stop-opacity="1" stop-color="rgb(6.204224%, 52.345276%, 100%)" offset="0.695312"/><stop stop-opacity="1" stop-color="rgb(6.173706%, 52.130127%, 100%)" offset="0.699219"/><stop stop-opacity="1" stop-color="rgb(6.143188%, 51.916504%, 100%)" offset="0.703125"/><stop stop-opacity="1" stop-color="rgb(6.111145%, 51.701355%, 100%)" offset="0.707031"/><stop stop-opacity="1" stop-color="rgb(6.080627%, 51.487732%, 100%)" offset="0.710938"/><stop stop-opacity="1" stop-color="rgb(6.05011%, 51.272583%, 100%)" offset="0.714844"/><stop stop-opacity="1" stop-color="rgb(6.019592%, 51.05896%, 100%)" offset="0.71875"/><stop stop-opacity="1" stop-color="rgb(5.987549%, 50.843811%, 100%)" offset="0.722656"/><stop stop-opacity="1" stop-color="rgb(5.957031%, 50.630188%, 100%)" offset="0.726562"/><stop stop-opacity="1" stop-color="rgb(5.924988%, 50.415039%, 100%)" offset="0.730469"/><stop stop-opacity="1" stop-color="rgb(5.89447%, 50.201416%, 100%)" offset="0.734375"/><stop stop-opacity="1" stop-color="rgb(5.863953%, 49.986267%, 100%)" offset="0.738281"/><stop stop-opacity="1" stop-color="rgb(5.833435%, 49.772644%, 100%)" offset="0.742188"/><stop stop-opacity="1" stop-color="rgb(5.801392%, 49.557495%, 100%)" offset="0.746094"/><stop stop-opacity="1" stop-color="rgb(5.770874%, 49.343872%, 100%)" offset="0.75"/><stop stop-opacity="1" stop-color="rgb(5.738831%, 49.128723%, 100%)" offset="0.753906"/><stop stop-opacity="1" stop-color="rgb(5.708313%, 48.9151%, 100%)" offset="0.757812"/><stop stop-opacity="1" stop-color="rgb(5.677795%, 48.699951%, 100%)" offset="0.761719"/><stop stop-opacity="1" stop-color="rgb(5.647278%, 48.486328%, 100%)" offset="0.765625"/><stop stop-opacity="1" stop-color="rgb(5.615234%, 48.271179%, 100%)" offset="0.769531"/><stop stop-opacity="1" stop-color="rgb(5.584717%, 48.057556%, 100%)" offset="0.773438"/><stop stop-opacity="1" stop-color="rgb(5.552673%, 47.842407%, 100%)" offset="0.777344"/><stop stop-opacity="1" stop-color="rgb(5.522156%, 47.628784%, 100%)" offset="0.78125"/><stop stop-opacity="1" stop-color="rgb(5.491638%, 47.413635%, 100%)" offset="0.785156"/><stop stop-opacity="1" stop-color="rgb(5.461121%, 47.200012%, 100%)" offset="0.789062"/><stop stop-opacity="1" stop-color="rgb(5.429077%, 46.984863%, 100%)" offset="0.792969"/><stop stop-opacity="1" stop-color="rgb(5.39856%, 46.77124%, 100%)" offset="0.796875"/><stop stop-opacity="1" stop-color="rgb(5.368042%, 46.556091%, 100%)" offset="0.800781"/><stop stop-opacity="1" stop-color="rgb(5.337524%, 46.342468%, 100%)" offset="0.804688"/><stop stop-opacity="1" stop-color="rgb(5.305481%, 46.127319%, 100%)" offset="0.808594"/><stop stop-opacity="1" stop-color="rgb(5.274963%, 45.913696%, 100%)" offset="0.8125"/><stop stop-opacity="1" stop-color="rgb(5.24292%, 45.698547%, 100%)" offset="0.816406"/><stop stop-opacity="1" stop-color="rgb(5.212402%, 45.484924%, 100%)" offset="0.820312"/><stop stop-opacity="1" stop-color="rgb(5.181885%, 45.269775%, 100%)" offset="0.824219"/><stop stop-opacity="1" stop-color="rgb(5.151367%, 45.056152%, 100%)" offset="0.828125"/><stop stop-opacity="1" stop-color="rgb(5.125427%, 44.877625%, 100%)" offset="0.84375"/><stop stop-opacity="1" stop-color="rgb(5.099487%, 44.699097%, 100%)" offset="0.875"/><stop stop-opacity="1" stop-color="rgb(5.099487%, 44.699097%, 100%)" offset="1"/></linearGradient></defs><g fill="#0d72ff" fill-opacity="1"><g transform="translate(80.706332, 70.29074)"><g><path d="M 19.171875 0.796875 C 16.140625 0.796875 13.507812 0.300781 11.28125 -0.6875 C 9.050781 -1.6875 7.21875 -3.039062 5.78125 -4.75 C 4.34375 -6.46875 3.265625 -8.441406 2.546875 -10.671875 C 1.835938 -12.898438 1.484375 -15.253906 1.484375 -17.734375 C 1.484375 -20.210938 1.835938 -22.554688 2.546875 -24.765625 C 3.265625 -26.972656 4.34375 -28.9375 5.78125 -30.65625 C 7.21875 -32.375 9.050781 -33.71875 11.28125 -34.6875 C 13.507812 -35.664062 16.140625 -36.15625 19.171875 -36.15625 C 22.296875 -36.15625 24.960938 -35.617188 27.171875 -34.546875 C 29.390625 -33.484375 31.148438 -32 32.453125 -30.09375 C 33.753906 -28.195312 34.554688 -25.976562 34.859375 -23.4375 L 25.765625 -23.4375 C 25.515625 -25.269531 24.757812 -26.609375 23.5 -27.453125 C 22.25 -28.304688 20.742188 -28.734375 18.984375 -28.734375 C 16.171875 -28.734375 14.015625 -27.734375 12.515625 -25.734375 C 11.015625 -23.742188 10.265625 -21.078125 10.265625 -17.734375 C 10.265625 -14.359375 11.015625 -11.664062 12.515625 -9.65625 C 14.015625 -7.644531 16.171875 -6.640625 18.984375 -6.640625 C 20.742188 -6.640625 22.242188 -7.070312 23.484375 -7.9375 C 24.722656 -8.800781 25.484375 -10.160156 25.765625 -12.015625 L 34.859375 -12.015625 C 34.554688 -9.484375 33.753906 -7.25 32.453125 -5.3125 C 31.148438 -3.375 29.390625 -1.867188 27.171875 -0.796875 C 24.960938 0.265625 22.296875 0.796875 19.171875 0.796875 Z M 19.171875 0.796875 "/></g></g></g><g fill="#ffffff" fill-opacity="1"><g transform="translate(112.692461, 70.29074)"><g><path d="M 15.3125 0.5625 C 12.59375 0.5625 10.1875 -0.0078125 8.09375 -1.15625 C 6.007812 -2.300781 4.382812 -3.914062 3.21875 -6 C 2.0625 -8.09375 1.484375 -10.535156 1.484375 -13.328125 C 1.484375 -16.015625 2.0625 -18.367188 3.21875 -20.390625 C 4.382812 -22.421875 6.003906 -24.007812 8.078125 -25.15625 C 10.148438 -26.300781 12.5625 -26.875 15.3125 -26.875 C 18.070312 -26.875 20.488281 -26.300781 22.5625 -25.15625 C 24.632812 -24.007812 26.25 -22.421875 27.40625 -20.390625 C 28.570312 -18.367188 29.15625 -16.015625 29.15625 -13.328125 C 29.15625 -10.535156 28.582031 -8.101562 27.4375 -6.03125 C 26.289062 -3.957031 24.679688 -2.335938 22.609375 -1.171875 C 20.535156 -0.015625 18.101562 0.5625 15.3125 0.5625 Z M 15.3125 -6.125 C 17.082031 -6.125 18.476562 -6.78125 19.5 -8.09375 C 20.519531 -9.414062 21.03125 -11.160156 21.03125 -13.328125 C 21.03125 -15.367188 20.519531 -17.03125 19.5 -18.3125 C 18.476562 -19.59375 17.082031 -20.234375 15.3125 -20.234375 C 13.582031 -20.234375 12.179688 -19.597656 11.109375 -18.328125 C 10.046875 -17.066406 9.515625 -15.398438 9.515625 -13.328125 C 9.515625 -11.128906 10.046875 -9.378906 11.109375 -8.078125 C 12.179688 -6.773438 13.582031 -6.125 15.3125 -6.125 Z M 15.3125 -6.125 "/></g></g></g><g fill="#ffffff" fill-opacity="1"><g transform="translate(139.144909, 70.29074)"><g><path d="M 10.359375 0 L 2.546875 0 L 2.546875 -26.328125 L 10.359375 -26.328125 L 10.359375 -23.484375 C 11.253906 -24.816406 12.25 -25.710938 13.34375 -26.171875 C 14.445312 -26.640625 15.691406 -26.875 17.078125 -26.875 L 18.25 -26.875 L 18.25 -19.453125 L 16.765625 -19.453125 C 15.679688 -19.453125 14.78125 -19.328125 14.0625 -19.078125 C 13.351562 -18.828125 12.765625 -18.488281 12.296875 -18.0625 C 11.617188 -17.40625 11.125 -16.523438 10.8125 -15.421875 C 10.507812 -14.328125 10.359375 -12.882812 10.359375 -11.09375 Z M 10.359375 0 "/></g></g></g><g fill="#ffffff" fill-opacity="1"><g transform="translate(153.994934, 70.29074)"><g><path d="M 15.21875 0.5625 C 12.4375 0.5625 10.015625 -0.0234375 7.953125 -1.203125 C 5.898438 -2.378906 4.304688 -3.976562 3.171875 -6 C 2.046875 -8.03125 1.484375 -10.347656 1.484375 -12.953125 C 1.484375 -14.617188 1.738281 -16.269531 2.25 -17.90625 C 2.757812 -19.550781 3.5625 -21.054688 4.65625 -22.421875 C 5.757812 -23.785156 7.160156 -24.867188 8.859375 -25.671875 C 10.566406 -26.472656 12.613281 -26.875 15 -26.875 C 16.726562 -26.875 18.40625 -26.617188 20.03125 -26.109375 C 21.65625 -25.597656 23.109375 -24.785156 24.390625 -23.671875 C 25.679688 -22.554688 26.703125 -21.109375 27.453125 -19.328125 C 28.210938 -17.554688 28.59375 -15.398438 28.59375 -12.859375 L 28.59375 -11.515625 L 9.65625 -11.515625 C 9.875 -10.085938 10.320312 -8.957031 11 -8.125 C 11.5625 -7.445312 12.234375 -6.941406 13.015625 -6.609375 C 13.804688 -6.285156 14.679688 -6.125 15.640625 -6.125 C 16.816406 -6.125 17.816406 -6.414062 18.640625 -7 C 19.460938 -7.59375 20.023438 -8.289062 20.328125 -9.09375 L 28.171875 -9.09375 C 27.679688 -7.363281 26.894531 -5.765625 25.8125 -4.296875 C 24.726562 -2.828125 23.3125 -1.648438 21.5625 -0.765625 C 19.8125 0.117188 17.695312 0.5625 15.21875 0.5625 Z M 9.890625 -17.03125 L 20.703125 -17.03125 C 20.640625 -17.34375 20.519531 -17.710938 20.34375 -18.140625 C 20.175781 -18.578125 19.878906 -19 19.453125 -19.40625 C 18.890625 -19.957031 18.253906 -20.347656 17.546875 -20.578125 C 16.835938 -20.816406 16.078125 -20.9375 15.265625 -20.9375 C 14.492188 -20.9375 13.742188 -20.816406 13.015625 -20.578125 C 12.296875 -20.347656 11.65625 -19.957031 11.09375 -19.40625 C 10.65625 -18.96875 10.359375 -18.539062 10.203125 -18.125 C 10.054688 -17.707031 9.953125 -17.34375 9.890625 -17.03125 Z M 9.890625 -17.03125 "/></g></g></g><g fill="#0d72ff" fill-opacity="1"><g transform="translate(179.897173, 70.29074)"><g><path d="M 19.96875 0 L 9.9375 0 L 0.703125 -35.421875 L 7.703125 -35.421875 L 15 -6.03125 L 21.59375 -35.421875 L 30.078125 -35.421875 L 36.671875 -5.984375 L 43.96875 -35.421875 L 50.96875 -35.421875 L 41.6875 0 L 31.703125 0 L 25.8125 -27.4375 Z M 19.96875 0 "/></g></g></g><g fill="#ffffff" fill-opacity="1"><g transform="translate(227.333738, 70.29074)"><g><path d="M 15.3125 0.5625 C 12.59375 0.5625 10.1875 -0.0078125 8.09375 -1.15625 C 6.007812 -2.300781 4.382812 -3.914062 3.21875 -6 C 2.0625 -8.09375 1.484375 -10.535156 1.484375 -13.328125 C 1.484375 -16.015625 2.0625 -18.367188 3.21875 -20.390625 C 4.382812 -22.421875 6.003906 -24.007812 8.078125 -25.15625 C 10.148438 -26.300781 12.5625 -26.875 15.3125 -26.875 C 18.070312 -26.875 20.488281 -26.300781 22.5625 -25.15625 C 24.632812 -24.007812 26.25 -22.421875 27.40625 -20.390625 C 28.570312 -18.367188 29.15625 -16.015625 29.15625 -13.328125 C 29.15625 -10.535156 28.582031 -8.101562 27.4375 -6.03125 C 26.289062 -3.957031 24.679688 -2.335938 22.609375 -1.171875 C 20.535156 -0.015625 18.101562 0.5625 15.3125 0.5625 Z M 15.3125 -6.125 C 17.082031 -6.125 18.476562 -6.78125 19.5 -8.09375 C 20.519531 -9.414062 21.03125 -11.160156 21.03125 -13.328125 C 21.03125 -15.367188 20.519531 -17.03125 19.5 -18.3125 C 18.476562 -19.59375 17.082031 -20.234375 15.3125 -20.234375 C 13.582031 -20.234375 12.179688 -19.597656 11.109375 -18.328125 C 10.046875 -17.066406 9.515625 -15.398438 9.515625 -13.328125 C 9.515625 -11.128906 10.046875 -9.378906 11.109375 -8.078125 C 12.179688 -6.773438 13.582031 -6.125 15.3125 -6.125 Z M 15.3125 -6.125 "/></g></g></g><g fill="#ffffff" fill-opacity="1"><g transform="translate(253.786186, 70.29074)"><g><path d="M 10.359375 0 L 2.546875 0 L 2.546875 -26.328125 L 10.359375 -26.328125 L 10.359375 -23.484375 C 11.253906 -24.816406 12.25 -25.710938 13.34375 -26.171875 C 14.445312 -26.640625 15.691406 -26.875 17.078125 -26.875 L 18.25 -26.875 L 18.25 -19.453125 L 16.765625 -19.453125 C 15.679688 -19.453125 14.78125 -19.328125 14.0625 -19.078125 C 13.351562 -18.828125 12.765625 -18.488281 12.296875 -18.0625 C 11.617188 -17.40625 11.125 -16.523438 10.8125 -15.421875 C 10.507812 -14.328125 10.359375 -12.882812 10.359375 -11.09375 Z M 10.359375 0 "/></g></g></g><g fill="#ffffff" fill-opacity="1"><g transform="translate(268.636211, 70.29074)"><g><path d="M 10.359375 0 L 2.546875 0 L 2.546875 -35.421875 L 10.359375 -35.421875 L 10.359375 -17.078125 L 18.703125 -26.328125 L 28.3125 -26.328125 L 17.5 -15 L 28.921875 0 L 19.640625 0 L 10.359375 -12.625 Z M 10.359375 0 "/></g></g></g><g fill="#ffffff" fill-opacity="1"><g transform="translate(293.417916, 70.29074)"><g><path d="M 9.140625 0 L 0.375 0 L 9.046875 -13.328125 L 0.328125 -26.328125 L 9.140625 -26.328125 L 13.875 -18.46875 L 18.75 -26.328125 L 27.765625 -26.328125 L 18.796875 -13.328125 L 27.71875 0 L 18.796875 0 L 13.921875 -8.03125 Z M 9.140625 0 "/></g></g></g><g fill="#ffffff" fill-opacity="1"><g transform="translate(87.821422, 85.306613)"><g><path d="M 1.765625 0.0625 C 1.453125 0.0625 1.148438 0.0195312 0.859375 -0.0625 C 0.566406 -0.144531 0.332031 -0.253906 0.15625 -0.390625 L 0.46875 -1.078125 C 0.632812 -0.953125 0.832031 -0.851562 1.0625 -0.78125 C 1.300781 -0.707031 1.539062 -0.671875 1.78125 -0.671875 C 2.039062 -0.671875 2.234375 -0.707031 2.359375 -0.78125 C 2.484375 -0.863281 2.546875 -0.96875 2.546875 -1.09375 C 2.546875 -1.1875 2.503906 -1.265625 2.421875 -1.328125 C 2.347656 -1.390625 2.253906 -1.4375 2.140625 -1.46875 C 2.023438 -1.507812 1.875 -1.550781 1.6875 -1.59375 C 1.382812 -1.664062 1.132812 -1.738281 0.9375 -1.8125 C 0.75 -1.882812 0.582031 -2 0.4375 -2.15625 C 0.300781 -2.3125 0.234375 -2.523438 0.234375 -2.796875 C 0.234375 -3.023438 0.296875 -3.234375 0.421875 -3.421875 C 0.546875 -3.609375 0.734375 -3.753906 0.984375 -3.859375 C 1.234375 -3.972656 1.539062 -4.03125 1.90625 -4.03125 C 2.15625 -4.03125 2.398438 -4 2.640625 -3.9375 C 2.890625 -3.875 3.101562 -3.785156 3.28125 -3.671875 L 3 -2.984375 C 2.632812 -3.191406 2.269531 -3.296875 1.90625 -3.296875 C 1.644531 -3.296875 1.453125 -3.253906 1.328125 -3.171875 C 1.203125 -3.085938 1.140625 -2.976562 1.140625 -2.84375 C 1.140625 -2.707031 1.210938 -2.601562 1.359375 -2.53125 C 1.503906 -2.46875 1.722656 -2.40625 2.015625 -2.34375 C 2.304688 -2.269531 2.546875 -2.195312 2.734375 -2.125 C 2.929688 -2.050781 3.097656 -1.9375 3.234375 -1.78125 C 3.378906 -1.632812 3.453125 -1.425781 3.453125 -1.15625 C 3.453125 -0.925781 3.390625 -0.71875 3.265625 -0.53125 C 3.140625 -0.351562 2.945312 -0.207031 2.6875 -0.09375 C 2.4375 0.0078125 2.128906 0.0625 1.765625 0.0625 Z M 1.765625 0.0625 "/></g></g></g><g fill="#ffffff" fill-opacity="1"><g transform="translate(92.97957, 85.306613)"><g><path d="M 2.390625 0.0625 C 1.972656 0.0625 1.597656 -0.0234375 1.265625 -0.203125 C 0.941406 -0.378906 0.6875 -0.617188 0.5 -0.921875 C 0.3125 -1.234375 0.21875 -1.585938 0.21875 -1.984375 C 0.21875 -2.367188 0.3125 -2.71875 0.5 -3.03125 C 0.6875 -3.34375 0.941406 -3.585938 1.265625 -3.765625 C 1.597656 -3.941406 1.972656 -4.03125 2.390625 -4.03125 C 2.796875 -4.03125 3.160156 -3.941406 3.484375 -3.765625 C 3.816406 -3.585938 4.078125 -3.34375 4.265625 -3.03125 C 4.453125 -2.71875 4.546875 -2.367188 4.546875 -1.984375 C 4.546875 -1.585938 4.453125 -1.234375 4.265625 -0.921875 C 4.078125 -0.617188 3.816406 -0.378906 3.484375 -0.203125 C 3.160156 -0.0234375 2.796875 0.0625 2.390625 0.0625 Z M 2.390625 -0.71875 C 2.617188 -0.71875 2.828125 -0.769531 3.015625 -0.875 C 3.203125 -0.976562 3.347656 -1.125 3.453125 -1.3125 C 3.566406 -1.507812 3.625 -1.734375 3.625 -1.984375 C 3.625 -2.222656 3.566406 -2.4375 3.453125 -2.625 C 3.347656 -2.820312 3.203125 -2.972656 3.015625 -3.078125 C 2.828125 -3.191406 2.617188 -3.25 2.390625 -3.25 C 2.148438 -3.25 1.9375 -3.191406 1.75 -3.078125 C 1.5625 -2.972656 1.410156 -2.820312 1.296875 -2.625 C 1.191406 -2.4375 1.140625 -2.222656 1.140625 -1.984375 C 1.140625 -1.734375 1.191406 -1.507812 1.296875 -1.3125 C 1.410156 -1.125 1.5625 -0.976562 1.75 -0.875 C 1.9375 -0.769531 2.148438 -0.71875 2.390625 -0.71875 Z M 2.390625 -0.71875 "/></g></g></g><g fill="#ffffff" fill-opacity="1"><g transform="translate(99.302829, 85.306613)"><g><path d="M 0.46875 -3.953125 L 1.390625 -3.953125 L 1.390625 -0.75 L 3.375 -0.75 L 3.375 0 L 0.46875 0 Z M 0.46875 -3.953125 "/></g></g></g><g fill="#ffffff" fill-opacity="1"><g transform="translate(104.268676, 85.306613)"><g><path d="M 2.234375 0.0625 C 1.660156 0.0625 1.21875 -0.09375 0.90625 -0.40625 C 0.59375 -0.71875 0.4375 -1.160156 0.4375 -1.734375 L 0.4375 -3.953125 L 1.359375 -3.953125 L 1.359375 -1.78125 C 1.359375 -1.070312 1.648438 -0.71875 2.234375 -0.71875 C 2.523438 -0.71875 2.742188 -0.800781 2.890625 -0.96875 C 3.035156 -1.144531 3.109375 -1.414062 3.109375 -1.78125 L 3.109375 -3.953125 L 4.015625 -3.953125 L 4.015625 -1.734375 C 4.015625 -1.160156 3.859375 -0.71875 3.546875 -0.40625 C 3.234375 -0.09375 2.796875 0.0625 2.234375 0.0625 Z M 2.234375 0.0625 "/></g></g></g><g fill="#ffffff" fill-opacity="1"><g transform="translate(110.27521, 85.306613)"><g><path d="M 2.359375 0.0625 C 1.960938 0.0625 1.597656 -0.0195312 1.265625 -0.1875 C 0.941406 -0.363281 0.6875 -0.609375 0.5 -0.921875 C 0.3125 -1.234375 0.21875 -1.585938 0.21875 -1.984375 C 0.21875 -2.367188 0.3125 -2.71875 0.5 -3.03125 C 0.6875 -3.34375 0.941406 -3.585938 1.265625 -3.765625 C 1.597656 -3.941406 1.96875 -4.03125 2.375 -4.03125 C 2.71875 -4.03125 3.023438 -3.96875 3.296875 -3.84375 C 3.578125 -3.726562 3.8125 -3.554688 4 -3.328125 L 3.40625 -2.78125 C 3.144531 -3.09375 2.816406 -3.25 2.421875 -3.25 C 2.171875 -3.25 1.945312 -3.191406 1.75 -3.078125 C 1.5625 -2.972656 1.410156 -2.820312 1.296875 -2.625 C 1.191406 -2.4375 1.140625 -2.222656 1.140625 -1.984375 C 1.140625 -1.734375 1.191406 -1.507812 1.296875 -1.3125 C 1.410156 -1.125 1.5625 -0.976562 1.75 -0.875 C 1.945312 -0.769531 2.171875 -0.71875 2.421875 -0.71875 C 2.816406 -0.71875 3.144531 -0.875 3.40625 -1.1875 L 4 -0.640625 C 3.8125 -0.410156 3.578125 -0.234375 3.296875 -0.109375 C 3.015625 0.00390625 2.703125 0.0625 2.359375 0.0625 Z M 2.359375 0.0625 "/></g></g></g><g fill="#ffffff" fill-opacity="1"><g transform="translate(115.970671, 85.306613)"><g><path d="M 0.46875 -3.953125 L 1.390625 -3.953125 L 1.390625 0 L 0.46875 0 Z M 0.46875 -3.953125 "/></g></g></g><g fill="#ffffff" fill-opacity="1"><g transform="translate(119.375503, 85.306613)"><g><path d="M 2.390625 0.0625 C 1.972656 0.0625 1.597656 -0.0234375 1.265625 -0.203125 C 0.941406 -0.378906 0.6875 -0.617188 0.5 -0.921875 C 0.3125 -1.234375 0.21875 -1.585938 0.21875 -1.984375 C 0.21875 -2.367188 0.3125 -2.71875 0.5 -3.03125 C 0.6875 -3.34375 0.941406 -3.585938 1.265625 -3.765625 C 1.597656 -3.941406 1.972656 -4.03125 2.390625 -4.03125 C 2.796875 -4.03125 3.160156 -3.941406 3.484375 -3.765625 C 3.816406 -3.585938 4.078125 -3.34375 4.265625 -3.03125 C 4.453125 -2.71875 4.546875 -2.367188 4.546875 -1.984375 C 4.546875 -1.585938 4.453125 -1.234375 4.265625 -0.921875 C 4.078125 -0.617188 3.816406 -0.378906 3.484375 -0.203125 C 3.160156 -0.0234375 2.796875 0.0625 2.390625 0.0625 Z M 2.390625 -0.71875 C 2.617188 -0.71875 2.828125 -0.769531 3.015625 -0.875 C 3.203125 -0.976562 3.347656 -1.125 3.453125 -1.3125 C 3.566406 -1.507812 3.625 -1.734375 3.625 -1.984375 C 3.625 -2.222656 3.566406 -2.4375 3.453125 -2.625 C 3.347656 -2.820312 3.203125 -2.972656 3.015625 -3.078125 C 2.828125 -3.191406 2.617188 -3.25 2.390625 -3.25 C 2.148438 -3.25 1.9375 -3.191406 1.75 -3.078125 C 1.5625 -2.972656 1.410156 -2.820312 1.296875 -2.625 C 1.191406 -2.4375 1.140625 -2.222656 1.140625 -1.984375 C 1.140625 -1.734375 1.191406 -1.507812 1.296875 -1.3125 C 1.410156 -1.125 1.5625 -0.976562 1.75 -0.875 C 1.9375 -0.769531 2.148438 -0.71875 2.390625 -0.71875 Z M 2.390625 -0.71875 "/></g></g></g><g fill="#ffffff" fill-opacity="1"><g transform="translate(125.698762, 85.306613)"><g><path d="M 4.09375 -3.953125 L 4.09375 0 L 3.34375 0 L 1.375 -2.40625 L 1.375 0 L 0.46875 0 L 0.46875 -3.953125 L 1.234375 -3.953125 L 3.203125 -1.5625 L 3.203125 -3.953125 Z M 4.09375 -3.953125 "/></g></g></g><g fill="#ffffff" fill-opacity="1"><g transform="translate(131.818416, 85.306613)"><g><path d="M 3.53125 -0.734375 L 3.53125 0 L 0.46875 0 L 0.46875 -3.953125 L 3.46875 -3.953125 L 3.46875 -3.21875 L 1.375 -3.21875 L 1.375 -2.359375 L 3.21875 -2.359375 L 3.21875 -1.65625 L 1.375 -1.65625 L 1.375 -0.734375 Z M 3.53125 -0.734375 "/></g></g></g><g fill="#ffffff" fill-opacity="1"><g transform="translate(137.163213, 85.306613)"><g><path d="M 1.765625 0.0625 C 1.453125 0.0625 1.148438 0.0195312 0.859375 -0.0625 C 0.566406 -0.144531 0.332031 -0.253906 0.15625 -0.390625 L 0.46875 -1.078125 C 0.632812 -0.953125 0.832031 -0.851562 1.0625 -0.78125 C 1.300781 -0.707031 1.539062 -0.671875 1.78125 -0.671875 C 2.039062 -0.671875 2.234375 -0.707031 2.359375 -0.78125 C 2.484375 -0.863281 2.546875 -0.96875 2.546875 -1.09375 C 2.546875 -1.1875 2.503906 -1.265625 2.421875 -1.328125 C 2.347656 -1.390625 2.253906 -1.4375 2.140625 -1.46875 C 2.023438 -1.507812 1.875 -1.550781 1.6875 -1.59375 C 1.382812 -1.664062 1.132812 -1.738281 0.9375 -1.8125 C 0.75 -1.882812 0.582031 -2 0.4375 -2.15625 C 0.300781 -2.3125 0.234375 -2.523438 0.234375 -2.796875 C 0.234375 -3.023438 0.296875 -3.234375 0.421875 -3.421875 C 0.546875 -3.609375 0.734375 -3.753906 0.984375 -3.859375 C 1.234375 -3.972656 1.539062 -4.03125 1.90625 -4.03125 C 2.15625 -4.03125 2.398438 -4 2.640625 -3.9375 C 2.890625 -3.875 3.101562 -3.785156 3.28125 -3.671875 L 3 -2.984375 C 2.632812 -3.191406 2.269531 -3.296875 1.90625 -3.296875 C 1.644531 -3.296875 1.453125 -3.253906 1.328125 -3.171875 C 1.203125 -3.085938 1.140625 -2.976562 1.140625 -2.84375 C 1.140625 -2.707031 1.210938 -2.601562 1.359375 -2.53125 C 1.503906 -2.46875 1.722656 -2.40625 2.015625 -2.34375 C 2.304688 -2.269531 2.546875 -2.195312 2.734375 -2.125 C 2.929688 -2.050781 3.097656 -1.9375 3.234375 -1.78125 C 3.378906 -1.632812 3.453125 -1.425781 3.453125 -1.15625 C 3.453125 -0.925781 3.390625 -0.71875 3.265625 -0.53125 C 3.140625 -0.351562 2.945312 -0.207031 2.6875 -0.09375 C 2.4375 0.0078125 2.128906 0.0625 1.765625 0.0625 Z M 1.765625 0.0625 "/></g></g></g><g fill="#ffffff" fill-opacity="1"><g transform="translate(142.321363, 85.306613)"><g/></g></g><g fill="#ffffff" fill-opacity="1"><g transform="translate(145.471678, 85.306613)"><g><path d="M 0.46875 -3.953125 L 1.390625 -3.953125 L 1.390625 0 L 0.46875 0 Z M 0.46875 -3.953125 "/></g></g></g><g fill="#ffffff" fill-opacity="1"><g transform="translate(148.876506, 85.306613)"><g><path d="M 4.09375 -3.953125 L 4.09375 0 L 3.34375 0 L 1.375 -2.40625 L 1.375 0 L 0.46875 0 L 0.46875 -3.953125 L 1.234375 -3.953125 L 3.203125 -1.5625 L 3.203125 -3.953125 Z M 4.09375 -3.953125 "/></g></g></g><g fill="#ffffff" fill-opacity="1"><g transform="translate(154.996156, 85.306613)"><g><path d="M 1.296875 -3.21875 L 0.015625 -3.21875 L 0.015625 -3.953125 L 3.46875 -3.953125 L 3.46875 -3.21875 L 2.203125 -3.21875 L 2.203125 0 L 1.296875 0 Z M 1.296875 -3.21875 "/></g></g></g><g fill="#ffffff" fill-opacity="1"><g transform="translate(160.041183, 85.306613)"><g><path d="M 3.53125 -0.734375 L 3.53125 0 L 0.46875 0 L 0.46875 -3.953125 L 3.46875 -3.953125 L 3.46875 -3.21875 L 1.375 -3.21875 L 1.375 -2.359375 L 3.21875 -2.359375 L 3.21875 -1.65625 L 1.375 -1.65625 L 1.375 -0.734375 Z M 3.53125 -0.734375 "/></g></g></g><g fill="#ffffff" fill-opacity="1"><g transform="translate(165.385977, 85.306613)"><g><path d="M 0.46875 -3.953125 L 1.390625 -3.953125 L 1.390625 -0.75 L 3.375 -0.75 L 3.375 0 L 0.46875 0 Z M 0.46875 -3.953125 "/></g></g></g><g fill="#ffffff" fill-opacity="1"><g transform="translate(170.351822, 85.306613)"><g><path d="M 0.46875 -3.953125 L 1.390625 -3.953125 L 1.390625 0 L 0.46875 0 Z M 0.46875 -3.953125 "/></g></g></g><g fill="#ffffff" fill-opacity="1"><g transform="translate(173.75665, 85.306613)"><g><path d="M 3.140625 -2.046875 L 3.984375 -2.046875 L 3.984375 -0.4375 C 3.765625 -0.269531 3.515625 -0.144531 3.234375 -0.0625 C 2.953125 0.0195312 2.664062 0.0625 2.375 0.0625 C 1.96875 0.0625 1.597656 -0.0195312 1.265625 -0.1875 C 0.941406 -0.363281 0.6875 -0.609375 0.5 -0.921875 C 0.3125 -1.234375 0.21875 -1.585938 0.21875 -1.984375 C 0.21875 -2.367188 0.3125 -2.71875 0.5 -3.03125 C 0.6875 -3.34375 0.945312 -3.585938 1.28125 -3.765625 C 1.613281 -3.941406 1.984375 -4.03125 2.390625 -4.03125 C 2.742188 -4.03125 3.0625 -3.96875 3.34375 -3.84375 C 3.625 -3.726562 3.863281 -3.5625 4.0625 -3.34375 L 3.46875 -2.796875 C 3.1875 -3.097656 2.84375 -3.25 2.4375 -3.25 C 2.1875 -3.25 1.960938 -3.195312 1.765625 -3.09375 C 1.566406 -2.988281 1.410156 -2.835938 1.296875 -2.640625 C 1.191406 -2.453125 1.140625 -2.234375 1.140625 -1.984375 C 1.140625 -1.734375 1.191406 -1.507812 1.296875 -1.3125 C 1.410156 -1.125 1.566406 -0.976562 1.765625 -0.875 C 1.960938 -0.769531 2.1875 -0.71875 2.4375 -0.71875 C 2.695312 -0.71875 2.929688 -0.769531 3.140625 -0.875 Z M 3.140625 -2.046875 "/></g></g></g><g fill="#ffffff" fill-opacity="1"><g transform="translate(179.667027, 85.306613)"><g><path d="M 3.53125 -0.734375 L 3.53125 0 L 0.46875 0 L 0.46875 -3.953125 L 3.46875 -3.953125 L 3.46875 -3.21875 L 1.375 -3.21875 L 1.375 -2.359375 L 3.21875 -2.359375 L 3.21875 -1.65625 L 1.375 -1.65625 L 1.375 -0.734375 Z M 3.53125 -0.734375 "/></g></g></g><g fill="#ffffff" fill-opacity="1"><g transform="translate(185.011821, 85.306613)"><g><path d="M 4.09375 -3.953125 L 4.09375 0 L 3.34375 0 L 1.375 -2.40625 L 1.375 0 L 0.46875 0 L 0.46875 -3.953125 L 1.234375 -3.953125 L 3.203125 -1.5625 L 3.203125 -3.953125 Z M 4.09375 -3.953125 "/></g></g></g><g fill="#ffffff" fill-opacity="1"><g transform="translate(191.13147, 85.306613)"><g><path d="M 1.296875 -3.21875 L 0.015625 -3.21875 L 0.015625 -3.953125 L 3.46875 -3.953125 L 3.46875 -3.21875 L 2.203125 -3.21875 L 2.203125 0 L 1.296875 0 Z M 1.296875 -3.21875 "/></g></g></g><g fill="#ffffff" fill-opacity="1"><g transform="translate(196.176497, 85.306613)"><g><path d="M 3.53125 -0.734375 L 3.53125 0 L 0.46875 0 L 0.46875 -3.953125 L 3.46875 -3.953125 L 3.46875 -3.21875 L 1.375 -3.21875 L 1.375 -2.359375 L 3.21875 -2.359375 L 3.21875 -1.65625 L 1.375 -1.65625 L 1.375 -0.734375 Z M 3.53125 -0.734375 "/></g></g></g><g fill="#ffffff" fill-opacity="1"><g transform="translate(201.521291, 85.306613)"><g><path d="M 1.765625 0.0625 C 1.453125 0.0625 1.148438 0.0195312 0.859375 -0.0625 C 0.566406 -0.144531 0.332031 -0.253906 0.15625 -0.390625 L 0.46875 -1.078125 C 0.632812 -0.953125 0.832031 -0.851562 1.0625 -0.78125 C 1.300781 -0.707031 1.539062 -0.671875 1.78125 -0.671875 C 2.039062 -0.671875 2.234375 -0.707031 2.359375 -0.78125 C 2.484375 -0.863281 2.546875 -0.96875 2.546875 -1.09375 C 2.546875 -1.1875 2.503906 -1.265625 2.421875 -1.328125 C 2.347656 -1.390625 2.253906 -1.4375 2.140625 -1.46875 C 2.023438 -1.507812 1.875 -1.550781 1.6875 -1.59375 C 1.382812 -1.664062 1.132812 -1.738281 0.9375 -1.8125 C 0.75 -1.882812 0.582031 -2 0.4375 -2.15625 C 0.300781 -2.3125 0.234375 -2.523438 0.234375 -2.796875 C 0.234375 -3.023438 0.296875 -3.234375 0.421875 -3.421875 C 0.546875 -3.609375 0.734375 -3.753906 0.984375 -3.859375 C 1.234375 -3.972656 1.539062 -4.03125 1.90625 -4.03125 C 2.15625 -4.03125 2.398438 -4 2.640625 -3.9375 C 2.890625 -3.875 3.101562 -3.785156 3.28125 -3.671875 L 3 -2.984375 C 2.632812 -3.191406 2.269531 -3.296875 1.90625 -3.296875 C 1.644531 -3.296875 1.453125 -3.253906 1.328125 -3.171875 C 1.203125 -3.085938 1.140625 -2.976562 1.140625 -2.84375 C 1.140625 -2.707031 1.210938 -2.601562 1.359375 -2.53125 C 1.503906 -2.46875 1.722656 -2.40625 2.015625 -2.34375 C 2.304688 -2.269531 2.546875 -2.195312 2.734375 -2.125 C 2.929688 -2.050781 3.097656 -1.9375 3.234375 -1.78125 C 3.378906 -1.632812 3.453125 -1.425781 3.453125 -1.15625 C 3.453125 -0.925781 3.390625 -0.71875 3.265625 -0.53125 C 3.140625 -0.351562 2.945312 -0.207031 2.6875 -0.09375 C 2.4375 0.0078125 2.128906 0.0625 1.765625 0.0625 Z M 1.765625 0.0625 "/></g></g></g><g fill="#ffffff" fill-opacity="1"><g transform="translate(206.679437, 85.306613)"><g/></g></g><g fill="#ffffff" fill-opacity="1"><g transform="translate(209.829756, 85.306613)"><g><path d="M 2.1875 -3.953125 C 2.53125 -3.953125 2.832031 -3.894531 3.09375 -3.78125 C 3.351562 -3.664062 3.550781 -3.5 3.6875 -3.28125 C 3.832031 -3.070312 3.90625 -2.816406 3.90625 -2.515625 C 3.90625 -2.234375 3.832031 -1.984375 3.6875 -1.765625 C 3.550781 -1.546875 3.351562 -1.378906 3.09375 -1.265625 C 2.832031 -1.148438 2.53125 -1.09375 2.1875 -1.09375 L 1.390625 -1.09375 L 1.390625 0 L 0.46875 0 L 0.46875 -3.953125 Z M 2.125 -1.84375 C 2.40625 -1.84375 2.613281 -1.898438 2.75 -2.015625 C 2.894531 -2.128906 2.96875 -2.296875 2.96875 -2.515625 C 2.96875 -2.742188 2.894531 -2.914062 2.75 -3.03125 C 2.613281 -3.15625 2.40625 -3.21875 2.125 -3.21875 L 1.390625 -3.21875 L 1.390625 -1.84375 Z M 2.125 -1.84375 "/></g></g></g><g fill="#ffffff" fill-opacity="1"><g transform="translate(215.519553, 85.306613)"><g><path d="M 3.078125 -0.84375 L 1.234375 -0.84375 L 0.890625 0 L -0.046875 0 L 1.71875 -3.953125 L 2.625 -3.953125 L 4.390625 0 L 3.421875 0 Z M 2.78125 -1.546875 L 2.15625 -3.0625 L 1.53125 -1.546875 Z M 2.78125 -1.546875 "/></g></g></g><g fill="#ffffff" fill-opacity="1"><g transform="translate(221.401659, 85.306613)"><g><path d="M 2.984375 0 L 2.234375 -1.109375 L 1.390625 -1.109375 L 1.390625 0 L 0.46875 0 L 0.46875 -3.953125 L 2.1875 -3.953125 C 2.53125 -3.953125 2.832031 -3.894531 3.09375 -3.78125 C 3.351562 -3.664062 3.550781 -3.5 3.6875 -3.28125 C 3.832031 -3.070312 3.90625 -2.816406 3.90625 -2.515625 C 3.90625 -2.222656 3.832031 -1.96875 3.6875 -1.75 C 3.550781 -1.539062 3.351562 -1.378906 3.09375 -1.265625 L 3.96875 0 Z M 2.96875 -2.515625 C 2.96875 -2.742188 2.894531 -2.914062 2.75 -3.03125 C 2.613281 -3.15625 2.40625 -3.21875 2.125 -3.21875 L 1.390625 -3.21875 L 1.390625 -1.828125 L 2.125 -1.828125 C 2.40625 -1.828125 2.613281 -1.882812 2.75 -2 C 2.894531 -2.125 2.96875 -2.296875 2.96875 -2.515625 Z M 2.96875 -2.515625 "/></g></g></g><g fill="#ffffff" fill-opacity="1"><g transform="translate(227.108429, 85.306613)"><g><path d="M 3.078125 -0.84375 L 1.234375 -0.84375 L 0.890625 0 L -0.046875 0 L 1.71875 -3.953125 L 2.625 -3.953125 L 4.390625 0 L 3.421875 0 Z M 2.78125 -1.546875 L 2.15625 -3.0625 L 1.53125 -1.546875 Z M 2.78125 -1.546875 "/></g></g></g><g fill="#ffffff" fill-opacity="1"><g transform="translate(232.990534, 85.306613)"><g/></g></g><g fill="#ffffff" fill-opacity="1"><g transform="translate(236.140846, 85.306613)"><g><path d="M 2.234375 0.0625 C 1.660156 0.0625 1.21875 -0.09375 0.90625 -0.40625 C 0.59375 -0.71875 0.4375 -1.160156 0.4375 -1.734375 L 0.4375 -3.953125 L 1.359375 -3.953125 L 1.359375 -1.78125 C 1.359375 -1.070312 1.648438 -0.71875 2.234375 -0.71875 C 2.523438 -0.71875 2.742188 -0.800781 2.890625 -0.96875 C 3.035156 -1.144531 3.109375 -1.414062 3.109375 -1.78125 L 3.109375 -3.953125 L 4.015625 -3.953125 L 4.015625 -1.734375 C 4.015625 -1.160156 3.859375 -0.71875 3.546875 -0.40625 C 3.234375 -0.09375 2.796875 0.0625 2.234375 0.0625 Z M 2.234375 0.0625 "/></g></g></g><g fill="#ffffff" fill-opacity="1"><g transform="translate(242.147383, 85.306613)"><g><path d="M 4.09375 -3.953125 L 4.09375 0 L 3.34375 0 L 1.375 -2.40625 L 1.375 0 L 0.46875 0 L 0.46875 -3.953125 L 1.234375 -3.953125 L 3.203125 -1.5625 L 3.203125 -3.953125 Z M 4.09375 -3.953125 "/></g></g></g><g fill="#ffffff" fill-opacity="1"><g transform="translate(248.267033, 85.306613)"><g/></g></g><g fill="#ffffff" fill-opacity="1"><g transform="translate(251.417345, 85.306613)"><g><path d="M 1.390625 -3.21875 L 1.390625 -2.171875 L 3.21875 -2.171875 L 3.21875 -1.4375 L 1.390625 -1.4375 L 1.390625 0 L 0.46875 0 L 0.46875 -3.953125 L 3.46875 -3.953125 L 3.46875 -3.21875 Z M 1.390625 -3.21875 "/></g></g></g><g fill="#ffffff" fill-opacity="1"><g transform="translate(256.581151, 85.306613)"><g><path d="M 2.234375 0.0625 C 1.660156 0.0625 1.21875 -0.09375 0.90625 -0.40625 C 0.59375 -0.71875 0.4375 -1.160156 0.4375 -1.734375 L 0.4375 -3.953125 L 1.359375 -3.953125 L 1.359375 -1.78125 C 1.359375 -1.070312 1.648438 -0.71875 2.234375 -0.71875 C 2.523438 -0.71875 2.742188 -0.800781 2.890625 -0.96875 C 3.035156 -1.144531 3.109375 -1.414062 3.109375 -1.78125 L 3.109375 -3.953125 L 4.015625 -3.953125 L 4.015625 -1.734375 C 4.015625 -1.160156 3.859375 -0.71875 3.546875 -0.40625 C 3.234375 -0.09375 2.796875 0.0625 2.234375 0.0625 Z M 2.234375 0.0625 "/></g></g></g><g fill="#ffffff" fill-opacity="1"><g transform="translate(262.587688, 85.306613)"><g><path d="M 1.296875 -3.21875 L 0.015625 -3.21875 L 0.015625 -3.953125 L 3.46875 -3.953125 L 3.46875 -3.21875 L 2.203125 -3.21875 L 2.203125 0 L 1.296875 0 Z M 1.296875 -3.21875 "/></g></g></g><g fill="#ffffff" fill-opacity="1"><g transform="translate(267.632715, 85.306613)"><g><path d="M 2.234375 0.0625 C 1.660156 0.0625 1.21875 -0.09375 0.90625 -0.40625 C 0.59375 -0.71875 0.4375 -1.160156 0.4375 -1.734375 L 0.4375 -3.953125 L 1.359375 -3.953125 L 1.359375 -1.78125 C 1.359375 -1.070312 1.648438 -0.71875 2.234375 -0.71875 C 2.523438 -0.71875 2.742188 -0.800781 2.890625 -0.96875 C 3.035156 -1.144531 3.109375 -1.414062 3.109375 -1.78125 L 3.109375 -3.953125 L 4.015625 -3.953125 L 4.015625 -1.734375 C 4.015625 -1.160156 3.859375 -0.71875 3.546875 -0.40625 C 3.234375 -0.09375 2.796875 0.0625 2.234375 0.0625 Z M 2.234375 0.0625 "/></g></g></g><g fill="#ffffff" fill-opacity="1"><g transform="translate(273.639252, 85.306613)"><g><path d="M 2.984375 0 L 2.234375 -1.109375 L 1.390625 -1.109375 L 1.390625 0 L 0.46875 0 L 0.46875 -3.953125 L 2.1875 -3.953125 C 2.53125 -3.953125 2.832031 -3.894531 3.09375 -3.78125 C 3.351562 -3.664062 3.550781 -3.5 3.6875 -3.28125 C 3.832031 -3.070312 3.90625 -2.816406 3.90625 -2.515625 C 3.90625 -2.222656 3.832031 -1.96875 3.6875 -1.75 C 3.550781 -1.539062 3.351562 -1.378906 3.09375 -1.265625 L 3.96875 0 Z M 2.96875 -2.515625 C 2.96875 -2.742188 2.894531 -2.914062 2.75 -3.03125 C 2.613281 -3.15625 2.40625 -3.21875 2.125 -3.21875 L 1.390625 -3.21875 L 1.390625 -1.828125 L 2.125 -1.828125 C 2.40625 -1.828125 2.613281 -1.882812 2.75 -2 C 2.894531 -2.125 2.96875 -2.296875 2.96875 -2.515625 Z M 2.96875 -2.515625 "/></g></g></g><g fill="#ffffff" fill-opacity="1"><g transform="translate(279.346022, 85.306613)"><g><path d="M 2.390625 0.0625 C 1.972656 0.0625 1.597656 -0.0234375 1.265625 -0.203125 C 0.941406 -0.378906 0.6875 -0.617188 0.5 -0.921875 C 0.3125 -1.234375 0.21875 -1.585938 0.21875 -1.984375 C 0.21875 -2.367188 0.3125 -2.71875 0.5 -3.03125 C 0.6875 -3.34375 0.941406 -3.585938 1.265625 -3.765625 C 1.597656 -3.941406 1.972656 -4.03125 2.390625 -4.03125 C 2.796875 -4.03125 3.160156 -3.941406 3.484375 -3.765625 C 3.816406 -3.585938 4.078125 -3.34375 4.265625 -3.03125 C 4.453125 -2.71875 4.546875 -2.367188 4.546875 -1.984375 C 4.546875 -1.585938 4.453125 -1.234375 4.265625 -0.921875 C 4.078125 -0.617188 3.816406 -0.378906 3.484375 -0.203125 C 3.160156 -0.0234375 2.796875 0.0625 2.390625 0.0625 Z M 2.390625 -0.71875 C 2.617188 -0.71875 2.828125 -0.769531 3.015625 -0.875 C 3.203125 -0.976562 3.347656 -1.125 3.453125 -1.3125 C 3.566406 -1.507812 3.625 -1.734375 3.625 -1.984375 C 3.625 -2.222656 3.566406 -2.4375 3.453125 -2.625 C 3.347656 -2.820312 3.203125 -2.972656 3.015625 -3.078125 C 2.828125 -3.191406 2.617188 -3.25 2.390625 -3.25 C 2.148438 -3.25 1.9375 -3.191406 1.75 -3.078125 C 1.5625 -2.972656 1.410156 -2.820312 1.296875 -2.625 C 1.191406 -2.4375 1.140625 -2.222656 1.140625 -1.984375 C 1.140625 -1.734375 1.191406 -1.507812 1.296875 -1.3125 C 1.410156 -1.125 1.5625 -0.976562 1.75 -0.875 C 1.9375 -0.769531 2.148438 -0.71875 2.390625 -0.71875 Z M 2.390625 -0.71875 "/></g></g></g><g fill="#ffffff" fill-opacity="1"><g transform="translate(285.669286, 85.306613)"><g/></g></g><g fill="#ffffff" fill-opacity="1"><g transform="translate(288.819597, 85.306613)"><g><path d="M 0.46875 -3.953125 L 2.265625 -3.953125 C 2.691406 -3.953125 3.070312 -3.867188 3.40625 -3.703125 C 3.738281 -3.546875 3.992188 -3.316406 4.171875 -3.015625 C 4.359375 -2.722656 4.453125 -2.378906 4.453125 -1.984375 C 4.453125 -1.585938 4.359375 -1.238281 4.171875 -0.9375 C 3.992188 -0.632812 3.738281 -0.398438 3.40625 -0.234375 C 3.070312 -0.078125 2.691406 0 2.265625 0 L 0.46875 0 Z M 2.21875 -0.75 C 2.613281 -0.75 2.929688 -0.859375 3.171875 -1.078125 C 3.410156 -1.296875 3.53125 -1.597656 3.53125 -1.984375 C 3.53125 -2.359375 3.410156 -2.65625 3.171875 -2.875 C 2.929688 -3.09375 2.613281 -3.203125 2.21875 -3.203125 L 1.390625 -3.203125 L 1.390625 -0.75 Z M 2.21875 -0.75 "/></g></g></g><g fill="#ffffff" fill-opacity="1"><g transform="translate(295.041054, 85.306613)"><g><path d="M 0.46875 -3.953125 L 1.390625 -3.953125 L 1.390625 0 L 0.46875 0 Z M 0.46875 -3.953125 "/></g></g></g><g fill="#ffffff" fill-opacity="1"><g transform="translate(298.445882, 85.306613)"><g><path d="M 3.140625 -2.046875 L 3.984375 -2.046875 L 3.984375 -0.4375 C 3.765625 -0.269531 3.515625 -0.144531 3.234375 -0.0625 C 2.953125 0.0195312 2.664062 0.0625 2.375 0.0625 C 1.96875 0.0625 1.597656 -0.0195312 1.265625 -0.1875 C 0.941406 -0.363281 0.6875 -0.609375 0.5 -0.921875 C 0.3125 -1.234375 0.21875 -1.585938 0.21875 -1.984375 C 0.21875 -2.367188 0.3125 -2.71875 0.5 -3.03125 C 0.6875 -3.34375 0.945312 -3.585938 1.28125 -3.765625 C 1.613281 -3.941406 1.984375 -4.03125 2.390625 -4.03125 C 2.742188 -4.03125 3.0625 -3.96875 3.34375 -3.84375 C 3.625 -3.726562 3.863281 -3.5625 4.0625 -3.34375 L 3.46875 -2.796875 C 3.1875 -3.097656 2.84375 -3.25 2.4375 -3.25 C 2.1875 -3.25 1.960938 -3.195312 1.765625 -3.09375 C 1.566406 -2.988281 1.410156 -2.835938 1.296875 -2.640625 C 1.191406 -2.453125 1.140625 -2.234375 1.140625 -1.984375 C 1.140625 -1.734375 1.191406 -1.507812 1.296875 -1.3125 C 1.410156 -1.125 1.566406 -0.976562 1.765625 -0.875 C 1.960938 -0.769531 2.1875 -0.71875 2.4375 -0.71875 C 2.695312 -0.71875 2.929688 -0.769531 3.140625 -0.875 Z M 3.140625 -2.046875 "/></g></g></g><g fill="#ffffff" fill-opacity="1"><g transform="translate(304.356265, 85.306613)"><g><path d="M 0.46875 -3.953125 L 1.390625 -3.953125 L 1.390625 0 L 0.46875 0 Z M 0.46875 -3.953125 "/></g></g></g><g fill="#ffffff" fill-opacity="1"><g transform="translate(307.761094, 85.306613)"><g><path d="M 1.296875 -3.21875 L 0.015625 -3.21875 L 0.015625 -3.953125 L 3.46875 -3.953125 L 3.46875 -3.21875 L 2.203125 -3.21875 L 2.203125 0 L 1.296875 0 Z M 1.296875 -3.21875 "/></g></g></g><g fill="#ffffff" fill-opacity="1"><g transform="translate(312.80612, 85.306613)"><g><path d="M 3.078125 -0.84375 L 1.234375 -0.84375 L 0.890625 0 L -0.046875 0 L 1.71875 -3.953125 L 2.625 -3.953125 L 4.390625 0 L 3.421875 0 Z M 2.78125 -1.546875 L 2.15625 -3.0625 L 1.53125 -1.546875 Z M 2.78125 -1.546875 "/></g></g></g><g fill="#ffffff" fill-opacity="1"><g transform="translate(318.688226, 85.306613)"><g><path d="M 0.46875 -3.953125 L 1.390625 -3.953125 L 1.390625 -0.75 L 3.375 -0.75 L 3.375 0 L 0.46875 0 Z M 0.46875 -3.953125 "/></g></g></g><g fill="#ffffff" fill-opacity="1"><g transform="translate(323.654071, 85.306613)"><g><path d="M 0.734375 0.046875 C 0.585938 0.046875 0.457031 -0.00390625 0.34375 -0.109375 C 0.238281 -0.210938 0.1875 -0.347656 0.1875 -0.515625 C 0.1875 -0.671875 0.238281 -0.796875 0.34375 -0.890625 C 0.457031 -0.992188 0.585938 -1.046875 0.734375 -1.046875 C 0.890625 -1.046875 1.019531 -0.992188 1.125 -0.890625 C 1.238281 -0.796875 1.296875 -0.671875 1.296875 -0.515625 C 1.296875 -0.347656 1.238281 -0.210938 1.125 -0.109375 C 1.019531 -0.00390625 0.890625 0.046875 0.734375 0.046875 Z M 0.734375 0.046875 "/></g></g></g><g clip-path="url(#6005302d10)"><g clip-path="url(#1e88997459)"><path fill="url(#c57202b88d)" d="M 5.941406 25.625 L 5.941406 97.320312 L 74.550781 97.320312 L 74.550781 25.625 Z M 5.941406 25.625 " fill-rule="nonzero"/></g></g></svg>